G04 #@! TF.GenerationSoftware,KiCad,Pcbnew,(5.0.2)-1*
G04 #@! TF.CreationDate,2019-01-05T19:06:30+01:00*
G04 #@! TF.ProjectId,DrumMetter,4472756d-4d65-4747-9465-722e6b696361,01*
G04 #@! TF.SameCoordinates,Original*
G04 #@! TF.FileFunction,Copper,L2,Bot*
G04 #@! TF.FilePolarity,Positive*
%FSLAX46Y46*%
G04 Gerber Fmt 4.6, Leading zero omitted, Abs format (unit mm)*
G04 Created by KiCad (PCBNEW (5.0.2)-1) date 05.01.2019 19:06:30*
%MOMM*%
%LPD*%
G01*
G04 APERTURE LIST*
G04 #@! TA.AperFunction,NonConductor*
%ADD10C,0.300000*%
G04 #@! TD*
G04 #@! TA.AperFunction,ComponentPad*
%ADD11C,1.900000*%
G04 #@! TD*
G04 #@! TA.AperFunction,ComponentPad*
%ADD12R,1.900000X1.900000*%
G04 #@! TD*
G04 #@! TA.AperFunction,SMDPad,CuDef*
%ADD13R,1.600000X2.000000*%
G04 #@! TD*
G04 #@! TA.AperFunction,ComponentPad*
%ADD14C,1.800000*%
G04 #@! TD*
G04 #@! TA.AperFunction,SMDPad,CuDef*
%ADD15R,3.200000X4.200000*%
G04 #@! TD*
G04 #@! TA.AperFunction,ViaPad*
%ADD16C,0.800000*%
G04 #@! TD*
G04 #@! TA.AperFunction,Conductor*
%ADD17C,0.250000*%
G04 #@! TD*
G04 #@! TA.AperFunction,Conductor*
%ADD18C,0.203200*%
G04 #@! TD*
G04 APERTURE END LIST*
D10*
X144114857Y-93710857D02*
X143714857Y-94910857D01*
X143314857Y-93710857D01*
X142686285Y-93710857D02*
X142572000Y-93710857D01*
X142457714Y-93768000D01*
X142400571Y-93825142D01*
X142343428Y-93939428D01*
X142286285Y-94168000D01*
X142286285Y-94453714D01*
X142343428Y-94682285D01*
X142400571Y-94796571D01*
X142457714Y-94853714D01*
X142572000Y-94910857D01*
X142686285Y-94910857D01*
X142800571Y-94853714D01*
X142857714Y-94796571D01*
X142914857Y-94682285D01*
X142972000Y-94453714D01*
X142972000Y-94168000D01*
X142914857Y-93939428D01*
X142857714Y-93825142D01*
X142800571Y-93768000D01*
X142686285Y-93710857D01*
X141143428Y-94910857D02*
X141829142Y-94910857D01*
X141486285Y-94910857D02*
X141486285Y-93710857D01*
X141600571Y-93882285D01*
X141714857Y-93996571D01*
X141829142Y-94053714D01*
D11*
G04 #@! TO.P,J1,6*
G04 #@! TO.N,N/C*
X181180000Y-92590000D03*
G04 #@! TO.P,J1,5*
G04 #@! TO.N,/ICSPCLK*
X181180000Y-90050000D03*
G04 #@! TO.P,J1,4*
G04 #@! TO.N,/ICSPDAT*
X181180000Y-87510000D03*
G04 #@! TO.P,J1,3*
G04 #@! TO.N,GND*
X181180000Y-84970000D03*
G04 #@! TO.P,J1,2*
G04 #@! TO.N,Net-(J1-Pad2)*
X181180000Y-82430000D03*
D12*
G04 #@! TO.P,J1,1*
G04 #@! TO.N,Net-(J1-Pad1)*
X181180000Y-79890000D03*
G04 #@! TD*
D13*
G04 #@! TO.P,C5,2*
G04 #@! TO.N,GND*
X177370000Y-90590000D03*
G04 #@! TO.P,C5,1*
G04 #@! TO.N,Net-(C5-Pad1)*
X177370000Y-94590000D03*
G04 #@! TD*
D14*
G04 #@! TO.P,Sw1,1*
G04 #@! TO.N,/3V*
X176100000Y-79230000D03*
G04 #@! TO.P,Sw1,2*
G04 #@! TO.N,Net-(C1-Pad1)*
X176100000Y-82430000D03*
G04 #@! TO.P,Sw1,3*
G04 #@! TO.N,Net-(J1-Pad2)*
X176100000Y-85630000D03*
G04 #@! TD*
D15*
G04 #@! TO.P,BT1,2*
G04 #@! TO.N,GND*
X142400000Y-86240000D03*
G04 #@! TO.P,BT1,1*
G04 #@! TO.N,/3V*
X171700000Y-86240000D03*
G04 #@! TD*
D16*
G04 #@! TO.N,GND*
X161812500Y-77350000D03*
X160542500Y-82430000D03*
X161812500Y-75381500D03*
X159018500Y-82430000D03*
X155907000Y-79318500D03*
X173687000Y-90748500D03*
X167527500Y-93606000D03*
X167527500Y-91256500D03*
X155907000Y-91320000D03*
X169242000Y-90748500D03*
X143080000Y-74746500D03*
G04 #@! TO.N,Net-(C1-Pad1)*
X162574500Y-80588500D03*
X162574500Y-78302500D03*
X170512000Y-80461500D03*
X168988000Y-80461500D03*
G04 #@! TO.N,VCC*
X157939000Y-82430000D03*
X156605500Y-78302500D03*
X156605500Y-74746500D03*
X157939000Y-79318500D03*
X165114500Y-87764000D03*
X163146000Y-79350000D03*
X169623000Y-95384000D03*
X173814000Y-94622000D03*
X165114500Y-95384000D03*
X171083500Y-76016500D03*
G04 #@! TO.N,Net-(C5-Pad1)*
X174195000Y-93098000D03*
G04 #@! TO.N,Net-(J1-Pad1)*
X154129000Y-86240000D03*
X154129000Y-82620500D03*
G04 #@! TO.N,/ICSPDAT*
X165876500Y-83700000D03*
X178576500Y-87510000D03*
G04 #@! TO.N,/ICSPCLK*
X165876500Y-84970000D03*
X178576500Y-88780000D03*
G04 #@! TO.N,/LED_RED*
X154891000Y-90050000D03*
X149430000Y-79826500D03*
G04 #@! TO.N,/LED_GREEN*
X159780500Y-90050000D03*
X159780500Y-80588500D03*
G04 #@! TO.N,/SDA*
X164352500Y-88653000D03*
X164352500Y-82938000D03*
G04 #@! TO.N,/SCL*
X163590500Y-87510000D03*
X163590500Y-94622000D03*
X165876500Y-94622000D03*
X174195000Y-92082000D03*
X163590500Y-82176000D03*
G04 #@! TO.N,/INT1*
X165876500Y-86240000D03*
X165876500Y-92590000D03*
G04 #@! TD*
D17*
G04 #@! TO.N,/3V*
X171700000Y-86240000D02*
X171700000Y-81051500D01*
X173521500Y-79230000D02*
X176100000Y-79230000D01*
X171700000Y-81051500D02*
X173521500Y-79230000D01*
G04 #@! TO.N,GND*
X161241000Y-82430000D02*
X160542500Y-82430000D01*
X161812500Y-81858500D02*
X161241000Y-82430000D01*
X161812500Y-77350000D02*
X161812500Y-81858500D01*
X161812500Y-75381500D02*
X161812500Y-77350000D01*
X158764500Y-83255500D02*
X155907000Y-83255500D01*
X159018500Y-82430000D02*
X159018500Y-83001500D01*
X159018500Y-83001500D02*
X158764500Y-83255500D01*
X142400000Y-86240000D02*
X142400000Y-79681000D01*
X142400000Y-78982500D02*
X142400000Y-79681000D01*
X142699000Y-78683500D02*
X142400000Y-78982500D01*
X143397500Y-78683500D02*
X143080000Y-78683500D01*
X143397500Y-78683500D02*
X154319500Y-78683500D01*
X154319500Y-78683500D02*
X154954500Y-79318500D01*
X154954500Y-79318500D02*
X155907000Y-79318500D01*
X155907000Y-79318500D02*
X155907000Y-83255500D01*
X167527500Y-93606000D02*
X167527500Y-91256500D01*
X155907000Y-83255500D02*
X155907000Y-91320000D01*
X173687000Y-90748500D02*
X169242000Y-90748500D01*
X173687000Y-90748500D02*
X177211500Y-90748500D01*
X177211500Y-90748500D02*
X177370000Y-90590000D01*
X177370000Y-90590000D02*
X178989000Y-90590000D01*
X179465500Y-90113500D02*
X179465500Y-85541500D01*
X178989000Y-90590000D02*
X179465500Y-90113500D01*
X180037000Y-84970000D02*
X181180000Y-84970000D01*
X179465500Y-85541500D02*
X180037000Y-84970000D01*
X143080000Y-78683500D02*
X142699000Y-78683500D01*
X143080000Y-74746500D02*
X143080000Y-78683500D01*
G04 #@! TO.N,Net-(C1-Pad1)*
X162574500Y-79890000D02*
X162574500Y-80588500D01*
X162320500Y-79636000D02*
X162574500Y-79890000D01*
X162320500Y-78556500D02*
X162320500Y-79636000D01*
X162574500Y-78302500D02*
X162320500Y-78556500D01*
X168988000Y-80461500D02*
X170512000Y-80461500D01*
G04 #@! TO.N,VCC*
X157939000Y-82430000D02*
X157939000Y-79318500D01*
X157939000Y-79318500D02*
X157939000Y-78683500D01*
X157558000Y-78302500D02*
X156605500Y-78302500D01*
X157939000Y-78683500D02*
X157558000Y-78302500D01*
X156605500Y-74746500D02*
X156605500Y-78302500D01*
X165114500Y-79763000D02*
X165114500Y-87764000D01*
X164701500Y-79350000D02*
X163146000Y-79350000D01*
X170512000Y-95384000D02*
X169623000Y-95384000D01*
X173814000Y-94622000D02*
X171274000Y-94622000D01*
X171274000Y-94622000D02*
X170512000Y-95384000D01*
X165114500Y-87764000D02*
X165114500Y-95384000D01*
X169623000Y-95384000D02*
X165114500Y-95384000D01*
X165114500Y-76842000D02*
X165114500Y-79350000D01*
X165114500Y-79350000D02*
X165114500Y-79763000D01*
X165940000Y-76016500D02*
X165114500Y-76842000D01*
X171083500Y-76016500D02*
X165940000Y-76016500D01*
X164701500Y-79350000D02*
X165114500Y-79350000D01*
G04 #@! TO.N,Net-(C5-Pad1)*
X174893500Y-93098000D02*
X174195000Y-93098000D01*
X176385500Y-94590000D02*
X174893500Y-93098000D01*
X176385500Y-94590000D02*
X177370000Y-94590000D01*
G04 #@! TO.N,Net-(J1-Pad1)*
X154129000Y-86240000D02*
X154129000Y-82620500D01*
G04 #@! TO.N,/ICSPDAT*
X175465000Y-87510000D02*
X178576500Y-87510000D01*
X174068000Y-88907000D02*
X175465000Y-87510000D01*
X169432500Y-88907000D02*
X174068000Y-88907000D01*
X168670500Y-88145000D02*
X169432500Y-88907000D01*
X168670500Y-85414500D02*
X168670500Y-88145000D01*
X168670500Y-85414500D02*
X168670500Y-84652500D01*
X167718000Y-83700000D02*
X166829000Y-83700000D01*
X168670500Y-84652500D02*
X167718000Y-83700000D01*
X165876500Y-83700000D02*
X166829000Y-83700000D01*
G04 #@! TO.N,/ICSPCLK*
X178576500Y-88780000D02*
X176354000Y-88780000D01*
X176354000Y-88780000D02*
X174831398Y-88780000D01*
X168220498Y-85853498D02*
X167337000Y-84970000D01*
X168220498Y-88331396D02*
X168220498Y-85853498D01*
X169246104Y-89357002D02*
X168220498Y-88331396D01*
X174254396Y-89357002D02*
X169246104Y-89357002D01*
X174831398Y-88780000D02*
X174254396Y-89357002D01*
X167337000Y-84970000D02*
X165876500Y-84970000D01*
G04 #@! TO.N,/LED_RED*
X154891000Y-90050000D02*
X154891000Y-80525000D01*
X154891000Y-80525000D02*
X154192500Y-79826500D01*
X149430000Y-79826500D02*
X154192500Y-79826500D01*
G04 #@! TO.N,/LED_GREEN*
X159780500Y-90050000D02*
X159780500Y-80588500D01*
G04 #@! TO.N,/SDA*
X164352500Y-88653000D02*
X164352500Y-82938000D01*
G04 #@! TO.N,/SCL*
X163590500Y-87510000D02*
X163590500Y-93098000D01*
X163590500Y-94622000D02*
X163590500Y-93098000D01*
X168797500Y-94622000D02*
X165876500Y-94622000D01*
X174195000Y-92082000D02*
X171337500Y-92082000D01*
X163590500Y-82176000D02*
X163590500Y-87510000D01*
X171337500Y-92082000D02*
X168797500Y-94622000D01*
G04 #@! TO.N,/INT1*
X165876500Y-92590000D02*
X165876500Y-86240000D01*
G04 #@! TD*
D18*
G04 #@! TO.N,GND*
G36*
X155595900Y-74545678D02*
X155595900Y-74947322D01*
X155749603Y-75318392D01*
X155870900Y-75439689D01*
X155870901Y-77609310D01*
X155749603Y-77730608D01*
X155595900Y-78101678D01*
X155595900Y-78503322D01*
X155749603Y-78874392D01*
X156033608Y-79158397D01*
X156404678Y-79312100D01*
X156806322Y-79312100D01*
X156929400Y-79261119D01*
X156929400Y-79519322D01*
X157083103Y-79890392D01*
X157204401Y-80011690D01*
X157204400Y-81736811D01*
X157083103Y-81858108D01*
X156929400Y-82229178D01*
X156929400Y-82630822D01*
X157083103Y-83001892D01*
X157367108Y-83285897D01*
X157738178Y-83439600D01*
X158139822Y-83439600D01*
X158510892Y-83285897D01*
X158794897Y-83001892D01*
X158948600Y-82630822D01*
X158948600Y-82229178D01*
X158794897Y-81858108D01*
X158673600Y-81736811D01*
X158673600Y-80387678D01*
X158770900Y-80387678D01*
X158770900Y-80789322D01*
X158924603Y-81160392D01*
X159045901Y-81281690D01*
X159045900Y-89356811D01*
X158924603Y-89478108D01*
X158770900Y-89849178D01*
X158770900Y-90250822D01*
X158924603Y-90621892D01*
X159208608Y-90905897D01*
X159579678Y-91059600D01*
X159981322Y-91059600D01*
X160352392Y-90905897D01*
X160636397Y-90621892D01*
X160790100Y-90250822D01*
X160790100Y-89849178D01*
X160636397Y-89478108D01*
X160515100Y-89356811D01*
X160515100Y-81281689D01*
X160636397Y-81160392D01*
X160790100Y-80789322D01*
X160790100Y-80387678D01*
X160636397Y-80016608D01*
X160352392Y-79732603D01*
X159981322Y-79578900D01*
X159579678Y-79578900D01*
X159208608Y-79732603D01*
X158924603Y-80016608D01*
X158770900Y-80387678D01*
X158673600Y-80387678D01*
X158673600Y-80011689D01*
X158794897Y-79890392D01*
X158948600Y-79519322D01*
X158948600Y-79117678D01*
X158794897Y-78746608D01*
X158677116Y-78628827D01*
X158669219Y-78589126D01*
X158630977Y-78396874D01*
X158468617Y-78153883D01*
X158407280Y-78112899D01*
X158128602Y-77834222D01*
X158087617Y-77772883D01*
X157844626Y-77610523D01*
X157630348Y-77567900D01*
X157630346Y-77567900D01*
X157558000Y-77553509D01*
X157485654Y-77567900D01*
X157340100Y-77567900D01*
X157340100Y-75439689D01*
X157461397Y-75318392D01*
X157615100Y-74947322D01*
X157615100Y-74545678D01*
X157465536Y-74184600D01*
X182315400Y-74184600D01*
X182315400Y-78355336D01*
X182130000Y-78318458D01*
X180230000Y-78318458D01*
X179992146Y-78365770D01*
X179790503Y-78500503D01*
X179655770Y-78702146D01*
X179608458Y-78940000D01*
X179608458Y-80840000D01*
X179655770Y-81077854D01*
X179790503Y-81279497D01*
X179990957Y-81413436D01*
X179857835Y-81546558D01*
X179620400Y-82119776D01*
X179620400Y-82740224D01*
X179857835Y-83313442D01*
X180296558Y-83752165D01*
X180312251Y-83758665D01*
X180276845Y-83851319D01*
X181180000Y-84754474D01*
X182083155Y-83851319D01*
X182047749Y-83758665D01*
X182063442Y-83752165D01*
X182315400Y-83500207D01*
X182315400Y-84073234D01*
X182298681Y-84066845D01*
X181395526Y-84970000D01*
X182298681Y-85873155D01*
X182315401Y-85866766D01*
X182315401Y-86439794D01*
X182063442Y-86187835D01*
X182047749Y-86181335D01*
X182083155Y-86088681D01*
X181180000Y-85185526D01*
X180276845Y-86088681D01*
X180312251Y-86181335D01*
X180296558Y-86187835D01*
X179857835Y-86626558D01*
X179620400Y-87199776D01*
X179620400Y-87820224D01*
X179857835Y-88393442D01*
X180244393Y-88780000D01*
X179857835Y-89166558D01*
X179620400Y-89739776D01*
X179620400Y-90360224D01*
X179857835Y-90933442D01*
X180244393Y-91320000D01*
X179857835Y-91706558D01*
X179620400Y-92279776D01*
X179620400Y-92900224D01*
X179857835Y-93473442D01*
X180296558Y-93912165D01*
X180869776Y-94149600D01*
X181490224Y-94149600D01*
X182063442Y-93912165D01*
X182315401Y-93660206D01*
X182315401Y-95815400D01*
X178746707Y-95815400D01*
X178791542Y-95590000D01*
X178791542Y-93590000D01*
X178744230Y-93352146D01*
X178609497Y-93150503D01*
X178407854Y-93015770D01*
X178170000Y-92968458D01*
X176570000Y-92968458D01*
X176332146Y-93015770D01*
X176130503Y-93150503D01*
X176072176Y-93237796D01*
X175464102Y-92629722D01*
X175423117Y-92568383D01*
X175180126Y-92406023D01*
X175155590Y-92401142D01*
X175204600Y-92282822D01*
X175204600Y-91881178D01*
X175050897Y-91510108D01*
X174766892Y-91226103D01*
X174395822Y-91072400D01*
X173994178Y-91072400D01*
X173623108Y-91226103D01*
X173501811Y-91347400D01*
X171409846Y-91347400D01*
X171337499Y-91333009D01*
X171265153Y-91347400D01*
X171265152Y-91347400D01*
X171050874Y-91390023D01*
X170807883Y-91552383D01*
X170766902Y-91613716D01*
X168493220Y-93887400D01*
X166569689Y-93887400D01*
X166448392Y-93766103D01*
X166077322Y-93612400D01*
X165849100Y-93612400D01*
X165849100Y-93599600D01*
X166077322Y-93599600D01*
X166448392Y-93445897D01*
X166732397Y-93161892D01*
X166886100Y-92790822D01*
X166886100Y-92389178D01*
X166732397Y-92018108D01*
X166611100Y-91896811D01*
X166611100Y-90894800D01*
X175960400Y-90894800D01*
X175960400Y-91711257D01*
X176053206Y-91935311D01*
X176224689Y-92106794D01*
X176448743Y-92199600D01*
X177065200Y-92199600D01*
X177217600Y-92047200D01*
X177217600Y-90742400D01*
X177522400Y-90742400D01*
X177522400Y-92047200D01*
X177674800Y-92199600D01*
X178291257Y-92199600D01*
X178515311Y-92106794D01*
X178686794Y-91935311D01*
X178779600Y-91711257D01*
X178779600Y-90894800D01*
X178627200Y-90742400D01*
X177522400Y-90742400D01*
X177217600Y-90742400D01*
X176112800Y-90742400D01*
X175960400Y-90894800D01*
X166611100Y-90894800D01*
X166611100Y-86933189D01*
X166732397Y-86811892D01*
X166886100Y-86440822D01*
X166886100Y-86039178D01*
X166747513Y-85704600D01*
X167032720Y-85704600D01*
X167485899Y-86157780D01*
X167485898Y-88259049D01*
X167471507Y-88331396D01*
X167485898Y-88403742D01*
X167485898Y-88403743D01*
X167528521Y-88618021D01*
X167690881Y-88861013D01*
X167752220Y-88901998D01*
X168675504Y-89825283D01*
X168716487Y-89886619D01*
X168959478Y-90048979D01*
X169173756Y-90091602D01*
X169173757Y-90091602D01*
X169246104Y-90105993D01*
X169318450Y-90091602D01*
X174182050Y-90091602D01*
X174254396Y-90105993D01*
X174326742Y-90091602D01*
X174326744Y-90091602D01*
X174541022Y-90048979D01*
X174784013Y-89886619D01*
X174824998Y-89825280D01*
X175135679Y-89514600D01*
X175960400Y-89514600D01*
X175960400Y-90285200D01*
X176112800Y-90437600D01*
X177217600Y-90437600D01*
X177217600Y-90417600D01*
X177522400Y-90417600D01*
X177522400Y-90437600D01*
X178627200Y-90437600D01*
X178779600Y-90285200D01*
X178779600Y-89788656D01*
X179148392Y-89635897D01*
X179432397Y-89351892D01*
X179586100Y-88980822D01*
X179586100Y-88579178D01*
X179432397Y-88208108D01*
X179369289Y-88145000D01*
X179432397Y-88081892D01*
X179586100Y-87710822D01*
X179586100Y-87309178D01*
X179432397Y-86938108D01*
X179148392Y-86654103D01*
X178777322Y-86500400D01*
X178375678Y-86500400D01*
X178004608Y-86654103D01*
X177883311Y-86775400D01*
X177089497Y-86775400D01*
X177379777Y-86485120D01*
X177609600Y-85930278D01*
X177609600Y-85329722D01*
X177379777Y-84774880D01*
X177353580Y-84748683D01*
X179605323Y-84748683D01*
X179640494Y-85368132D01*
X179809882Y-85777073D01*
X180061319Y-85873155D01*
X180964474Y-84970000D01*
X180061319Y-84066845D01*
X179809882Y-84162927D01*
X179605323Y-84748683D01*
X177353580Y-84748683D01*
X177217600Y-84612703D01*
X177217600Y-83447297D01*
X177379777Y-83285120D01*
X177609600Y-82730278D01*
X177609600Y-82129722D01*
X177379777Y-81574880D01*
X176955120Y-81150223D01*
X176400278Y-80920400D01*
X175799722Y-80920400D01*
X175244880Y-81150223D01*
X174820223Y-81574880D01*
X174590400Y-82129722D01*
X174590400Y-82730278D01*
X174820223Y-83285120D01*
X175244880Y-83709777D01*
X175446035Y-83793098D01*
X175462710Y-84259995D01*
X175244880Y-84350223D01*
X174820223Y-84774880D01*
X174590400Y-85329722D01*
X174590400Y-85930278D01*
X174820223Y-86485120D01*
X175163239Y-86828136D01*
X174935383Y-86980383D01*
X174894402Y-87041717D01*
X173921542Y-88014577D01*
X173921542Y-84140000D01*
X173874230Y-83902146D01*
X173739497Y-83700503D01*
X173537854Y-83565770D01*
X173300000Y-83518458D01*
X172434600Y-83518458D01*
X172434600Y-81355780D01*
X173825781Y-79964600D01*
X174770302Y-79964600D01*
X174820223Y-80085120D01*
X175244880Y-80509777D01*
X175799722Y-80739600D01*
X176400278Y-80739600D01*
X176955120Y-80509777D01*
X177379777Y-80085120D01*
X177609600Y-79530278D01*
X177609600Y-78929722D01*
X177379777Y-78374880D01*
X176955120Y-77950223D01*
X176400278Y-77720400D01*
X175799722Y-77720400D01*
X175244880Y-77950223D01*
X174820223Y-78374880D01*
X174770302Y-78495400D01*
X173593846Y-78495400D01*
X173521499Y-78481009D01*
X173449153Y-78495400D01*
X173449152Y-78495400D01*
X173234874Y-78538023D01*
X172991883Y-78700383D01*
X172950900Y-78761719D01*
X171501198Y-80211422D01*
X171367897Y-79889608D01*
X171083892Y-79605603D01*
X170712822Y-79451900D01*
X170311178Y-79451900D01*
X169940108Y-79605603D01*
X169818811Y-79726900D01*
X169681189Y-79726900D01*
X169559892Y-79605603D01*
X169188822Y-79451900D01*
X168787178Y-79451900D01*
X168416108Y-79605603D01*
X168132103Y-79889608D01*
X167978400Y-80260678D01*
X167978400Y-80662322D01*
X168132103Y-81033392D01*
X168416108Y-81317397D01*
X168787178Y-81471100D01*
X169188822Y-81471100D01*
X169559892Y-81317397D01*
X169681189Y-81196100D01*
X169818811Y-81196100D01*
X169940108Y-81317397D01*
X170311178Y-81471100D01*
X170712822Y-81471100D01*
X170965401Y-81366478D01*
X170965401Y-83518458D01*
X170100000Y-83518458D01*
X169862146Y-83565770D01*
X169660503Y-83700503D01*
X169525770Y-83902146D01*
X169478458Y-84140000D01*
X169478458Y-87914078D01*
X169405100Y-87840720D01*
X169405100Y-84724846D01*
X169419491Y-84652499D01*
X169377298Y-84440384D01*
X169362477Y-84365874D01*
X169200117Y-84122883D01*
X169138783Y-84081901D01*
X168288602Y-83231722D01*
X168247617Y-83170383D01*
X168004626Y-83008023D01*
X167790348Y-82965400D01*
X167790346Y-82965400D01*
X167718000Y-82951009D01*
X167645654Y-82965400D01*
X166569689Y-82965400D01*
X166448392Y-82844103D01*
X166077322Y-82690400D01*
X165849100Y-82690400D01*
X165849100Y-79422348D01*
X165863491Y-79350000D01*
X165849100Y-79277652D01*
X165849100Y-77146281D01*
X166244281Y-76751100D01*
X170390311Y-76751100D01*
X170511608Y-76872397D01*
X170882678Y-77026100D01*
X171284322Y-77026100D01*
X171655392Y-76872397D01*
X171939397Y-76588392D01*
X172093100Y-76217322D01*
X172093100Y-75815678D01*
X171939397Y-75444608D01*
X171655392Y-75160603D01*
X171284322Y-75006900D01*
X170882678Y-75006900D01*
X170511608Y-75160603D01*
X170390311Y-75281900D01*
X166012346Y-75281900D01*
X165939999Y-75267509D01*
X165867653Y-75281900D01*
X165867652Y-75281900D01*
X165653374Y-75324523D01*
X165410383Y-75486883D01*
X165369401Y-75548217D01*
X164646222Y-76271398D01*
X164584883Y-76312383D01*
X164422523Y-76555375D01*
X164379900Y-76769652D01*
X164365509Y-76842000D01*
X164379900Y-76914347D01*
X164379901Y-78615400D01*
X163839189Y-78615400D01*
X163717892Y-78494103D01*
X163584100Y-78438684D01*
X163584100Y-78101678D01*
X163430397Y-77730608D01*
X163146392Y-77446603D01*
X162775322Y-77292900D01*
X162373678Y-77292900D01*
X162002608Y-77446603D01*
X161718603Y-77730608D01*
X161564900Y-78101678D01*
X161564900Y-78503322D01*
X161576511Y-78531353D01*
X161571509Y-78556500D01*
X161585900Y-78628847D01*
X161585901Y-79563649D01*
X161571509Y-79636000D01*
X161611163Y-79835347D01*
X161628524Y-79922626D01*
X161708162Y-80041814D01*
X161564900Y-80387678D01*
X161564900Y-80789322D01*
X161718603Y-81160392D01*
X162002608Y-81444397D01*
X162373678Y-81598100D01*
X162740611Y-81598100D01*
X162734603Y-81604108D01*
X162580900Y-81975178D01*
X162580900Y-82376822D01*
X162734603Y-82747892D01*
X162855900Y-82869189D01*
X162855901Y-86816810D01*
X162734603Y-86938108D01*
X162580900Y-87309178D01*
X162580900Y-87710822D01*
X162734603Y-88081892D01*
X162855900Y-88203189D01*
X162855901Y-93025652D01*
X162855900Y-93928811D01*
X162734603Y-94050108D01*
X162580900Y-94421178D01*
X162580900Y-94822822D01*
X162734603Y-95193892D01*
X163018608Y-95477897D01*
X163389678Y-95631600D01*
X163791322Y-95631600D01*
X164104900Y-95501711D01*
X164104900Y-95584822D01*
X164200409Y-95815400D01*
X144988743Y-95815400D01*
X144988743Y-92819400D01*
X140684600Y-92819400D01*
X140684600Y-88949600D01*
X142095200Y-88949600D01*
X142247600Y-88797200D01*
X142247600Y-86392400D01*
X142552400Y-86392400D01*
X142552400Y-88797200D01*
X142704800Y-88949600D01*
X144121257Y-88949600D01*
X144345311Y-88856794D01*
X144516794Y-88685311D01*
X144609600Y-88461257D01*
X144609600Y-86544800D01*
X144457200Y-86392400D01*
X142552400Y-86392400D01*
X142247600Y-86392400D01*
X142227600Y-86392400D01*
X142227600Y-86087600D01*
X142247600Y-86087600D01*
X142247600Y-83682800D01*
X142552400Y-83682800D01*
X142552400Y-86087600D01*
X144457200Y-86087600D01*
X144609600Y-85935200D01*
X144609600Y-84018743D01*
X144516794Y-83794689D01*
X144345311Y-83623206D01*
X144121257Y-83530400D01*
X142704800Y-83530400D01*
X142552400Y-83682800D01*
X142247600Y-83682800D01*
X142095200Y-83530400D01*
X140684600Y-83530400D01*
X140684600Y-79625678D01*
X148420400Y-79625678D01*
X148420400Y-80027322D01*
X148574103Y-80398392D01*
X148858108Y-80682397D01*
X149229178Y-80836100D01*
X149630822Y-80836100D01*
X150001892Y-80682397D01*
X150123189Y-80561100D01*
X153888219Y-80561100D01*
X154156401Y-80829282D01*
X154156401Y-81610900D01*
X153928178Y-81610900D01*
X153557108Y-81764603D01*
X153273103Y-82048608D01*
X153119400Y-82419678D01*
X153119400Y-82821322D01*
X153273103Y-83192392D01*
X153394401Y-83313690D01*
X153394400Y-85546811D01*
X153273103Y-85668108D01*
X153119400Y-86039178D01*
X153119400Y-86440822D01*
X153273103Y-86811892D01*
X153557108Y-87095897D01*
X153928178Y-87249600D01*
X154156400Y-87249600D01*
X154156400Y-89356811D01*
X154035103Y-89478108D01*
X153881400Y-89849178D01*
X153881400Y-90250822D01*
X154035103Y-90621892D01*
X154319108Y-90905897D01*
X154690178Y-91059600D01*
X155091822Y-91059600D01*
X155462892Y-90905897D01*
X155746897Y-90621892D01*
X155900600Y-90250822D01*
X155900600Y-89849178D01*
X155746897Y-89478108D01*
X155625600Y-89356811D01*
X155625600Y-80597346D01*
X155639991Y-80524999D01*
X155625600Y-80452652D01*
X155582977Y-80238374D01*
X155420617Y-79995383D01*
X155359283Y-79954401D01*
X154763102Y-79358221D01*
X154722117Y-79296883D01*
X154479126Y-79134523D01*
X154264848Y-79091900D01*
X154264846Y-79091900D01*
X154192500Y-79077509D01*
X154120154Y-79091900D01*
X150123189Y-79091900D01*
X150001892Y-78970603D01*
X149630822Y-78816900D01*
X149229178Y-78816900D01*
X148858108Y-78970603D01*
X148574103Y-79254608D01*
X148420400Y-79625678D01*
X140684600Y-79625678D01*
X140684600Y-74184600D01*
X155745464Y-74184600D01*
X155595900Y-74545678D01*
X155595900Y-74545678D01*
G37*
X155595900Y-74545678D02*
X155595900Y-74947322D01*
X155749603Y-75318392D01*
X155870900Y-75439689D01*
X155870901Y-77609310D01*
X155749603Y-77730608D01*
X155595900Y-78101678D01*
X155595900Y-78503322D01*
X155749603Y-78874392D01*
X156033608Y-79158397D01*
X156404678Y-79312100D01*
X156806322Y-79312100D01*
X156929400Y-79261119D01*
X156929400Y-79519322D01*
X157083103Y-79890392D01*
X157204401Y-80011690D01*
X157204400Y-81736811D01*
X157083103Y-81858108D01*
X156929400Y-82229178D01*
X156929400Y-82630822D01*
X157083103Y-83001892D01*
X157367108Y-83285897D01*
X157738178Y-83439600D01*
X158139822Y-83439600D01*
X158510892Y-83285897D01*
X158794897Y-83001892D01*
X158948600Y-82630822D01*
X158948600Y-82229178D01*
X158794897Y-81858108D01*
X158673600Y-81736811D01*
X158673600Y-80387678D01*
X158770900Y-80387678D01*
X158770900Y-80789322D01*
X158924603Y-81160392D01*
X159045901Y-81281690D01*
X159045900Y-89356811D01*
X158924603Y-89478108D01*
X158770900Y-89849178D01*
X158770900Y-90250822D01*
X158924603Y-90621892D01*
X159208608Y-90905897D01*
X159579678Y-91059600D01*
X159981322Y-91059600D01*
X160352392Y-90905897D01*
X160636397Y-90621892D01*
X160790100Y-90250822D01*
X160790100Y-89849178D01*
X160636397Y-89478108D01*
X160515100Y-89356811D01*
X160515100Y-81281689D01*
X160636397Y-81160392D01*
X160790100Y-80789322D01*
X160790100Y-80387678D01*
X160636397Y-80016608D01*
X160352392Y-79732603D01*
X159981322Y-79578900D01*
X159579678Y-79578900D01*
X159208608Y-79732603D01*
X158924603Y-80016608D01*
X158770900Y-80387678D01*
X158673600Y-80387678D01*
X158673600Y-80011689D01*
X158794897Y-79890392D01*
X158948600Y-79519322D01*
X158948600Y-79117678D01*
X158794897Y-78746608D01*
X158677116Y-78628827D01*
X158669219Y-78589126D01*
X158630977Y-78396874D01*
X158468617Y-78153883D01*
X158407280Y-78112899D01*
X158128602Y-77834222D01*
X158087617Y-77772883D01*
X157844626Y-77610523D01*
X157630348Y-77567900D01*
X157630346Y-77567900D01*
X157558000Y-77553509D01*
X157485654Y-77567900D01*
X157340100Y-77567900D01*
X157340100Y-75439689D01*
X157461397Y-75318392D01*
X157615100Y-74947322D01*
X157615100Y-74545678D01*
X157465536Y-74184600D01*
X182315400Y-74184600D01*
X182315400Y-78355336D01*
X182130000Y-78318458D01*
X180230000Y-78318458D01*
X179992146Y-78365770D01*
X179790503Y-78500503D01*
X179655770Y-78702146D01*
X179608458Y-78940000D01*
X179608458Y-80840000D01*
X179655770Y-81077854D01*
X179790503Y-81279497D01*
X179990957Y-81413436D01*
X179857835Y-81546558D01*
X179620400Y-82119776D01*
X179620400Y-82740224D01*
X179857835Y-83313442D01*
X180296558Y-83752165D01*
X180312251Y-83758665D01*
X180276845Y-83851319D01*
X181180000Y-84754474D01*
X182083155Y-83851319D01*
X182047749Y-83758665D01*
X182063442Y-83752165D01*
X182315400Y-83500207D01*
X182315400Y-84073234D01*
X182298681Y-84066845D01*
X181395526Y-84970000D01*
X182298681Y-85873155D01*
X182315401Y-85866766D01*
X182315401Y-86439794D01*
X182063442Y-86187835D01*
X182047749Y-86181335D01*
X182083155Y-86088681D01*
X181180000Y-85185526D01*
X180276845Y-86088681D01*
X180312251Y-86181335D01*
X180296558Y-86187835D01*
X179857835Y-86626558D01*
X179620400Y-87199776D01*
X179620400Y-87820224D01*
X179857835Y-88393442D01*
X180244393Y-88780000D01*
X179857835Y-89166558D01*
X179620400Y-89739776D01*
X179620400Y-90360224D01*
X179857835Y-90933442D01*
X180244393Y-91320000D01*
X179857835Y-91706558D01*
X179620400Y-92279776D01*
X179620400Y-92900224D01*
X179857835Y-93473442D01*
X180296558Y-93912165D01*
X180869776Y-94149600D01*
X181490224Y-94149600D01*
X182063442Y-93912165D01*
X182315401Y-93660206D01*
X182315401Y-95815400D01*
X178746707Y-95815400D01*
X178791542Y-95590000D01*
X178791542Y-93590000D01*
X178744230Y-93352146D01*
X178609497Y-93150503D01*
X178407854Y-93015770D01*
X178170000Y-92968458D01*
X176570000Y-92968458D01*
X176332146Y-93015770D01*
X176130503Y-93150503D01*
X176072176Y-93237796D01*
X175464102Y-92629722D01*
X175423117Y-92568383D01*
X175180126Y-92406023D01*
X175155590Y-92401142D01*
X175204600Y-92282822D01*
X175204600Y-91881178D01*
X175050897Y-91510108D01*
X174766892Y-91226103D01*
X174395822Y-91072400D01*
X173994178Y-91072400D01*
X173623108Y-91226103D01*
X173501811Y-91347400D01*
X171409846Y-91347400D01*
X171337499Y-91333009D01*
X171265153Y-91347400D01*
X171265152Y-91347400D01*
X171050874Y-91390023D01*
X170807883Y-91552383D01*
X170766902Y-91613716D01*
X168493220Y-93887400D01*
X166569689Y-93887400D01*
X166448392Y-93766103D01*
X166077322Y-93612400D01*
X165849100Y-93612400D01*
X165849100Y-93599600D01*
X166077322Y-93599600D01*
X166448392Y-93445897D01*
X166732397Y-93161892D01*
X166886100Y-92790822D01*
X166886100Y-92389178D01*
X166732397Y-92018108D01*
X166611100Y-91896811D01*
X166611100Y-90894800D01*
X175960400Y-90894800D01*
X175960400Y-91711257D01*
X176053206Y-91935311D01*
X176224689Y-92106794D01*
X176448743Y-92199600D01*
X177065200Y-92199600D01*
X177217600Y-92047200D01*
X177217600Y-90742400D01*
X177522400Y-90742400D01*
X177522400Y-92047200D01*
X177674800Y-92199600D01*
X178291257Y-92199600D01*
X178515311Y-92106794D01*
X178686794Y-91935311D01*
X178779600Y-91711257D01*
X178779600Y-90894800D01*
X178627200Y-90742400D01*
X177522400Y-90742400D01*
X177217600Y-90742400D01*
X176112800Y-90742400D01*
X175960400Y-90894800D01*
X166611100Y-90894800D01*
X166611100Y-86933189D01*
X166732397Y-86811892D01*
X166886100Y-86440822D01*
X166886100Y-86039178D01*
X166747513Y-85704600D01*
X167032720Y-85704600D01*
X167485899Y-86157780D01*
X167485898Y-88259049D01*
X167471507Y-88331396D01*
X167485898Y-88403742D01*
X167485898Y-88403743D01*
X167528521Y-88618021D01*
X167690881Y-88861013D01*
X167752220Y-88901998D01*
X168675504Y-89825283D01*
X168716487Y-89886619D01*
X168959478Y-90048979D01*
X169173756Y-90091602D01*
X169173757Y-90091602D01*
X169246104Y-90105993D01*
X169318450Y-90091602D01*
X174182050Y-90091602D01*
X174254396Y-90105993D01*
X174326742Y-90091602D01*
X174326744Y-90091602D01*
X174541022Y-90048979D01*
X174784013Y-89886619D01*
X174824998Y-89825280D01*
X175135679Y-89514600D01*
X175960400Y-89514600D01*
X175960400Y-90285200D01*
X176112800Y-90437600D01*
X177217600Y-90437600D01*
X177217600Y-90417600D01*
X177522400Y-90417600D01*
X177522400Y-90437600D01*
X178627200Y-90437600D01*
X178779600Y-90285200D01*
X178779600Y-89788656D01*
X179148392Y-89635897D01*
X179432397Y-89351892D01*
X179586100Y-88980822D01*
X179586100Y-88579178D01*
X179432397Y-88208108D01*
X179369289Y-88145000D01*
X179432397Y-88081892D01*
X179586100Y-87710822D01*
X179586100Y-87309178D01*
X179432397Y-86938108D01*
X179148392Y-86654103D01*
X178777322Y-86500400D01*
X178375678Y-86500400D01*
X178004608Y-86654103D01*
X177883311Y-86775400D01*
X177089497Y-86775400D01*
X177379777Y-86485120D01*
X177609600Y-85930278D01*
X177609600Y-85329722D01*
X177379777Y-84774880D01*
X177353580Y-84748683D01*
X179605323Y-84748683D01*
X179640494Y-85368132D01*
X179809882Y-85777073D01*
X180061319Y-85873155D01*
X180964474Y-84970000D01*
X180061319Y-84066845D01*
X179809882Y-84162927D01*
X179605323Y-84748683D01*
X177353580Y-84748683D01*
X177217600Y-84612703D01*
X177217600Y-83447297D01*
X177379777Y-83285120D01*
X177609600Y-82730278D01*
X177609600Y-82129722D01*
X177379777Y-81574880D01*
X176955120Y-81150223D01*
X176400278Y-80920400D01*
X175799722Y-80920400D01*
X175244880Y-81150223D01*
X174820223Y-81574880D01*
X174590400Y-82129722D01*
X174590400Y-82730278D01*
X174820223Y-83285120D01*
X175244880Y-83709777D01*
X175446035Y-83793098D01*
X175462710Y-84259995D01*
X175244880Y-84350223D01*
X174820223Y-84774880D01*
X174590400Y-85329722D01*
X174590400Y-85930278D01*
X174820223Y-86485120D01*
X175163239Y-86828136D01*
X174935383Y-86980383D01*
X174894402Y-87041717D01*
X173921542Y-88014577D01*
X173921542Y-84140000D01*
X173874230Y-83902146D01*
X173739497Y-83700503D01*
X173537854Y-83565770D01*
X173300000Y-83518458D01*
X172434600Y-83518458D01*
X172434600Y-81355780D01*
X173825781Y-79964600D01*
X174770302Y-79964600D01*
X174820223Y-80085120D01*
X175244880Y-80509777D01*
X175799722Y-80739600D01*
X176400278Y-80739600D01*
X176955120Y-80509777D01*
X177379777Y-80085120D01*
X177609600Y-79530278D01*
X177609600Y-78929722D01*
X177379777Y-78374880D01*
X176955120Y-77950223D01*
X176400278Y-77720400D01*
X175799722Y-77720400D01*
X175244880Y-77950223D01*
X174820223Y-78374880D01*
X174770302Y-78495400D01*
X173593846Y-78495400D01*
X173521499Y-78481009D01*
X173449153Y-78495400D01*
X173449152Y-78495400D01*
X173234874Y-78538023D01*
X172991883Y-78700383D01*
X172950900Y-78761719D01*
X171501198Y-80211422D01*
X171367897Y-79889608D01*
X171083892Y-79605603D01*
X170712822Y-79451900D01*
X170311178Y-79451900D01*
X169940108Y-79605603D01*
X169818811Y-79726900D01*
X169681189Y-79726900D01*
X169559892Y-79605603D01*
X169188822Y-79451900D01*
X168787178Y-79451900D01*
X168416108Y-79605603D01*
X168132103Y-79889608D01*
X167978400Y-80260678D01*
X167978400Y-80662322D01*
X168132103Y-81033392D01*
X168416108Y-81317397D01*
X168787178Y-81471100D01*
X169188822Y-81471100D01*
X169559892Y-81317397D01*
X169681189Y-81196100D01*
X169818811Y-81196100D01*
X169940108Y-81317397D01*
X170311178Y-81471100D01*
X170712822Y-81471100D01*
X170965401Y-81366478D01*
X170965401Y-83518458D01*
X170100000Y-83518458D01*
X169862146Y-83565770D01*
X169660503Y-83700503D01*
X169525770Y-83902146D01*
X169478458Y-84140000D01*
X169478458Y-87914078D01*
X169405100Y-87840720D01*
X169405100Y-84724846D01*
X169419491Y-84652499D01*
X169377298Y-84440384D01*
X169362477Y-84365874D01*
X169200117Y-84122883D01*
X169138783Y-84081901D01*
X168288602Y-83231722D01*
X168247617Y-83170383D01*
X168004626Y-83008023D01*
X167790348Y-82965400D01*
X167790346Y-82965400D01*
X167718000Y-82951009D01*
X167645654Y-82965400D01*
X166569689Y-82965400D01*
X166448392Y-82844103D01*
X166077322Y-82690400D01*
X165849100Y-82690400D01*
X165849100Y-79422348D01*
X165863491Y-79350000D01*
X165849100Y-79277652D01*
X165849100Y-77146281D01*
X166244281Y-76751100D01*
X170390311Y-76751100D01*
X170511608Y-76872397D01*
X170882678Y-77026100D01*
X171284322Y-77026100D01*
X171655392Y-76872397D01*
X171939397Y-76588392D01*
X172093100Y-76217322D01*
X172093100Y-75815678D01*
X171939397Y-75444608D01*
X171655392Y-75160603D01*
X171284322Y-75006900D01*
X170882678Y-75006900D01*
X170511608Y-75160603D01*
X170390311Y-75281900D01*
X166012346Y-75281900D01*
X165939999Y-75267509D01*
X165867653Y-75281900D01*
X165867652Y-75281900D01*
X165653374Y-75324523D01*
X165410383Y-75486883D01*
X165369401Y-75548217D01*
X164646222Y-76271398D01*
X164584883Y-76312383D01*
X164422523Y-76555375D01*
X164379900Y-76769652D01*
X164365509Y-76842000D01*
X164379900Y-76914347D01*
X164379901Y-78615400D01*
X163839189Y-78615400D01*
X163717892Y-78494103D01*
X163584100Y-78438684D01*
X163584100Y-78101678D01*
X163430397Y-77730608D01*
X163146392Y-77446603D01*
X162775322Y-77292900D01*
X162373678Y-77292900D01*
X162002608Y-77446603D01*
X161718603Y-77730608D01*
X161564900Y-78101678D01*
X161564900Y-78503322D01*
X161576511Y-78531353D01*
X161571509Y-78556500D01*
X161585900Y-78628847D01*
X161585901Y-79563649D01*
X161571509Y-79636000D01*
X161611163Y-79835347D01*
X161628524Y-79922626D01*
X161708162Y-80041814D01*
X161564900Y-80387678D01*
X161564900Y-80789322D01*
X161718603Y-81160392D01*
X162002608Y-81444397D01*
X162373678Y-81598100D01*
X162740611Y-81598100D01*
X162734603Y-81604108D01*
X162580900Y-81975178D01*
X162580900Y-82376822D01*
X162734603Y-82747892D01*
X162855900Y-82869189D01*
X162855901Y-86816810D01*
X162734603Y-86938108D01*
X162580900Y-87309178D01*
X162580900Y-87710822D01*
X162734603Y-88081892D01*
X162855900Y-88203189D01*
X162855901Y-93025652D01*
X162855900Y-93928811D01*
X162734603Y-94050108D01*
X162580900Y-94421178D01*
X162580900Y-94822822D01*
X162734603Y-95193892D01*
X163018608Y-95477897D01*
X163389678Y-95631600D01*
X163791322Y-95631600D01*
X164104900Y-95501711D01*
X164104900Y-95584822D01*
X164200409Y-95815400D01*
X144988743Y-95815400D01*
X144988743Y-92819400D01*
X140684600Y-92819400D01*
X140684600Y-88949600D01*
X142095200Y-88949600D01*
X142247600Y-88797200D01*
X142247600Y-86392400D01*
X142552400Y-86392400D01*
X142552400Y-88797200D01*
X142704800Y-88949600D01*
X144121257Y-88949600D01*
X144345311Y-88856794D01*
X144516794Y-88685311D01*
X144609600Y-88461257D01*
X144609600Y-86544800D01*
X144457200Y-86392400D01*
X142552400Y-86392400D01*
X142247600Y-86392400D01*
X142227600Y-86392400D01*
X142227600Y-86087600D01*
X142247600Y-86087600D01*
X142247600Y-83682800D01*
X142552400Y-83682800D01*
X142552400Y-86087600D01*
X144457200Y-86087600D01*
X144609600Y-85935200D01*
X144609600Y-84018743D01*
X144516794Y-83794689D01*
X144345311Y-83623206D01*
X144121257Y-83530400D01*
X142704800Y-83530400D01*
X142552400Y-83682800D01*
X142247600Y-83682800D01*
X142095200Y-83530400D01*
X140684600Y-83530400D01*
X140684600Y-79625678D01*
X148420400Y-79625678D01*
X148420400Y-80027322D01*
X148574103Y-80398392D01*
X148858108Y-80682397D01*
X149229178Y-80836100D01*
X149630822Y-80836100D01*
X150001892Y-80682397D01*
X150123189Y-80561100D01*
X153888219Y-80561100D01*
X154156401Y-80829282D01*
X154156401Y-81610900D01*
X153928178Y-81610900D01*
X153557108Y-81764603D01*
X153273103Y-82048608D01*
X153119400Y-82419678D01*
X153119400Y-82821322D01*
X153273103Y-83192392D01*
X153394401Y-83313690D01*
X153394400Y-85546811D01*
X153273103Y-85668108D01*
X153119400Y-86039178D01*
X153119400Y-86440822D01*
X153273103Y-86811892D01*
X153557108Y-87095897D01*
X153928178Y-87249600D01*
X154156400Y-87249600D01*
X154156400Y-89356811D01*
X154035103Y-89478108D01*
X153881400Y-89849178D01*
X153881400Y-90250822D01*
X154035103Y-90621892D01*
X154319108Y-90905897D01*
X154690178Y-91059600D01*
X155091822Y-91059600D01*
X155462892Y-90905897D01*
X155746897Y-90621892D01*
X155900600Y-90250822D01*
X155900600Y-89849178D01*
X155746897Y-89478108D01*
X155625600Y-89356811D01*
X155625600Y-80597346D01*
X155639991Y-80524999D01*
X155625600Y-80452652D01*
X155582977Y-80238374D01*
X155420617Y-79995383D01*
X155359283Y-79954401D01*
X154763102Y-79358221D01*
X154722117Y-79296883D01*
X154479126Y-79134523D01*
X154264848Y-79091900D01*
X154264846Y-79091900D01*
X154192500Y-79077509D01*
X154120154Y-79091900D01*
X150123189Y-79091900D01*
X150001892Y-78970603D01*
X149630822Y-78816900D01*
X149229178Y-78816900D01*
X148858108Y-78970603D01*
X148574103Y-79254608D01*
X148420400Y-79625678D01*
X140684600Y-79625678D01*
X140684600Y-74184600D01*
X155745464Y-74184600D01*
X155595900Y-74545678D01*
G04 #@! TD*
M02*
