G04 #@! TF.GenerationSoftware,KiCad,Pcbnew,(5.0.2)-1*
G04 #@! TF.CreationDate,2019-01-05T19:06:30+01:00*
G04 #@! TF.ProjectId,DrumMetter,4472756d-4d65-4747-9465-722e6b696361,01*
G04 #@! TF.SameCoordinates,Original*
G04 #@! TF.FileFunction,Soldermask,Bot*
G04 #@! TF.FilePolarity,Negative*
%FSLAX46Y46*%
G04 Gerber Fmt 4.6, Leading zero omitted, Abs format (unit mm)*
G04 Created by KiCad (PCBNEW (5.0.2)-1) date 05.01.2019 19:06:30*
%MOMM*%
%LPD*%
G01*
G04 APERTURE LIST*
%ADD10C,0.300000*%
%ADD11C,0.100000*%
G04 APERTURE END LIST*
D10*
X149194857Y-93710857D02*
X148794857Y-94910857D01*
X148394857Y-93710857D01*
X147766285Y-93710857D02*
X147652000Y-93710857D01*
X147537714Y-93768000D01*
X147480571Y-93825142D01*
X147423428Y-93939428D01*
X147366285Y-94168000D01*
X147366285Y-94453714D01*
X147423428Y-94682285D01*
X147480571Y-94796571D01*
X147537714Y-94853714D01*
X147652000Y-94910857D01*
X147766285Y-94910857D01*
X147880571Y-94853714D01*
X147937714Y-94796571D01*
X147994857Y-94682285D01*
X148052000Y-94453714D01*
X148052000Y-94168000D01*
X147994857Y-93939428D01*
X147937714Y-93825142D01*
X147880571Y-93768000D01*
X147766285Y-93710857D01*
X146223428Y-94910857D02*
X146909142Y-94910857D01*
X146566285Y-94910857D02*
X146566285Y-93710857D01*
X146680571Y-93882285D01*
X146794857Y-93996571D01*
X146909142Y-94053714D01*
D11*
G36*
X178221000Y-95641000D02*
X176519000Y-95641000D01*
X176519000Y-93539000D01*
X178221000Y-93539000D01*
X178221000Y-95641000D01*
X178221000Y-95641000D01*
G37*
G36*
X181471981Y-91627468D02*
X181654150Y-91702925D01*
X181818103Y-91812475D01*
X181957525Y-91951897D01*
X182067075Y-92115850D01*
X182142532Y-92298019D01*
X182181000Y-92491410D01*
X182181000Y-92688590D01*
X182142532Y-92881981D01*
X182067075Y-93064150D01*
X181957525Y-93228103D01*
X181818103Y-93367525D01*
X181654150Y-93477075D01*
X181471981Y-93552532D01*
X181278590Y-93591000D01*
X181081410Y-93591000D01*
X180888019Y-93552532D01*
X180705850Y-93477075D01*
X180541897Y-93367525D01*
X180402475Y-93228103D01*
X180292925Y-93064150D01*
X180217468Y-92881981D01*
X180179000Y-92688590D01*
X180179000Y-92491410D01*
X180217468Y-92298019D01*
X180292925Y-92115850D01*
X180402475Y-91951897D01*
X180541897Y-91812475D01*
X180705850Y-91702925D01*
X180888019Y-91627468D01*
X181081410Y-91589000D01*
X181278590Y-91589000D01*
X181471981Y-91627468D01*
X181471981Y-91627468D01*
G37*
G36*
X178221000Y-91641000D02*
X176519000Y-91641000D01*
X176519000Y-89539000D01*
X178221000Y-89539000D01*
X178221000Y-91641000D01*
X178221000Y-91641000D01*
G37*
G36*
X181471981Y-89087468D02*
X181654150Y-89162925D01*
X181818103Y-89272475D01*
X181957525Y-89411897D01*
X182067075Y-89575850D01*
X182142532Y-89758019D01*
X182181000Y-89951410D01*
X182181000Y-90148590D01*
X182142532Y-90341981D01*
X182067075Y-90524150D01*
X181957525Y-90688103D01*
X181818103Y-90827525D01*
X181654150Y-90937075D01*
X181471981Y-91012532D01*
X181278590Y-91051000D01*
X181081410Y-91051000D01*
X180888019Y-91012532D01*
X180705850Y-90937075D01*
X180541897Y-90827525D01*
X180402475Y-90688103D01*
X180292925Y-90524150D01*
X180217468Y-90341981D01*
X180179000Y-90148590D01*
X180179000Y-89951410D01*
X180217468Y-89758019D01*
X180292925Y-89575850D01*
X180402475Y-89411897D01*
X180541897Y-89272475D01*
X180705850Y-89162925D01*
X180888019Y-89087468D01*
X181081410Y-89049000D01*
X181278590Y-89049000D01*
X181471981Y-89087468D01*
X181471981Y-89087468D01*
G37*
G36*
X181471981Y-86547468D02*
X181654150Y-86622925D01*
X181818103Y-86732475D01*
X181957525Y-86871897D01*
X182067075Y-87035850D01*
X182142532Y-87218019D01*
X182181000Y-87411410D01*
X182181000Y-87608590D01*
X182142532Y-87801981D01*
X182067075Y-87984150D01*
X181957525Y-88148103D01*
X181818103Y-88287525D01*
X181654150Y-88397075D01*
X181471981Y-88472532D01*
X181278590Y-88511000D01*
X181081410Y-88511000D01*
X180888019Y-88472532D01*
X180705850Y-88397075D01*
X180541897Y-88287525D01*
X180402475Y-88148103D01*
X180292925Y-87984150D01*
X180217468Y-87801981D01*
X180179000Y-87608590D01*
X180179000Y-87411410D01*
X180217468Y-87218019D01*
X180292925Y-87035850D01*
X180402475Y-86871897D01*
X180541897Y-86732475D01*
X180705850Y-86622925D01*
X180888019Y-86547468D01*
X181081410Y-86509000D01*
X181278590Y-86509000D01*
X181471981Y-86547468D01*
X181471981Y-86547468D01*
G37*
G36*
X173351000Y-88391000D02*
X170049000Y-88391000D01*
X170049000Y-84089000D01*
X173351000Y-84089000D01*
X173351000Y-88391000D01*
X173351000Y-88391000D01*
G37*
G36*
X144051000Y-88391000D02*
X140749000Y-88391000D01*
X140749000Y-84089000D01*
X144051000Y-84089000D01*
X144051000Y-88391000D01*
X144051000Y-88391000D01*
G37*
G36*
X176377396Y-84715546D02*
X176550466Y-84787234D01*
X176706230Y-84891312D01*
X176838688Y-85023770D01*
X176942766Y-85179534D01*
X177014454Y-85352604D01*
X177051000Y-85536333D01*
X177051000Y-85723667D01*
X177014454Y-85907396D01*
X176942766Y-86080466D01*
X176838688Y-86236230D01*
X176706230Y-86368688D01*
X176550466Y-86472766D01*
X176377396Y-86544454D01*
X176193667Y-86581000D01*
X176006333Y-86581000D01*
X175822604Y-86544454D01*
X175649534Y-86472766D01*
X175493770Y-86368688D01*
X175361312Y-86236230D01*
X175257234Y-86080466D01*
X175185546Y-85907396D01*
X175149000Y-85723667D01*
X175149000Y-85536333D01*
X175185546Y-85352604D01*
X175257234Y-85179534D01*
X175361312Y-85023770D01*
X175493770Y-84891312D01*
X175649534Y-84787234D01*
X175822604Y-84715546D01*
X176006333Y-84679000D01*
X176193667Y-84679000D01*
X176377396Y-84715546D01*
X176377396Y-84715546D01*
G37*
G36*
X181471981Y-84007468D02*
X181654150Y-84082925D01*
X181818103Y-84192475D01*
X181957525Y-84331897D01*
X182067075Y-84495850D01*
X182142532Y-84678019D01*
X182181000Y-84871410D01*
X182181000Y-85068590D01*
X182142532Y-85261981D01*
X182067075Y-85444150D01*
X181957525Y-85608103D01*
X181818103Y-85747525D01*
X181654150Y-85857075D01*
X181471981Y-85932532D01*
X181278590Y-85971000D01*
X181081410Y-85971000D01*
X180888019Y-85932532D01*
X180705850Y-85857075D01*
X180541897Y-85747525D01*
X180402475Y-85608103D01*
X180292925Y-85444150D01*
X180217468Y-85261981D01*
X180179000Y-85068590D01*
X180179000Y-84871410D01*
X180217468Y-84678019D01*
X180292925Y-84495850D01*
X180402475Y-84331897D01*
X180541897Y-84192475D01*
X180705850Y-84082925D01*
X180888019Y-84007468D01*
X181081410Y-83969000D01*
X181278590Y-83969000D01*
X181471981Y-84007468D01*
X181471981Y-84007468D01*
G37*
G36*
X181471981Y-81467468D02*
X181654150Y-81542925D01*
X181818103Y-81652475D01*
X181957525Y-81791897D01*
X182067075Y-81955850D01*
X182142532Y-82138019D01*
X182181000Y-82331410D01*
X182181000Y-82528590D01*
X182142532Y-82721981D01*
X182067075Y-82904150D01*
X181957525Y-83068103D01*
X181818103Y-83207525D01*
X181654150Y-83317075D01*
X181471981Y-83392532D01*
X181278590Y-83431000D01*
X181081410Y-83431000D01*
X180888019Y-83392532D01*
X180705850Y-83317075D01*
X180541897Y-83207525D01*
X180402475Y-83068103D01*
X180292925Y-82904150D01*
X180217468Y-82721981D01*
X180179000Y-82528590D01*
X180179000Y-82331410D01*
X180217468Y-82138019D01*
X180292925Y-81955850D01*
X180402475Y-81791897D01*
X180541897Y-81652475D01*
X180705850Y-81542925D01*
X180888019Y-81467468D01*
X181081410Y-81429000D01*
X181278590Y-81429000D01*
X181471981Y-81467468D01*
X181471981Y-81467468D01*
G37*
G36*
X176377396Y-81515546D02*
X176550466Y-81587234D01*
X176706230Y-81691312D01*
X176838688Y-81823770D01*
X176942766Y-81979534D01*
X177014454Y-82152604D01*
X177051000Y-82336333D01*
X177051000Y-82523667D01*
X177014454Y-82707396D01*
X176942766Y-82880466D01*
X176838688Y-83036230D01*
X176706230Y-83168688D01*
X176550466Y-83272766D01*
X176377396Y-83344454D01*
X176193667Y-83381000D01*
X176006333Y-83381000D01*
X175822604Y-83344454D01*
X175649534Y-83272766D01*
X175493770Y-83168688D01*
X175361312Y-83036230D01*
X175257234Y-82880466D01*
X175185546Y-82707396D01*
X175149000Y-82523667D01*
X175149000Y-82336333D01*
X175185546Y-82152604D01*
X175257234Y-81979534D01*
X175361312Y-81823770D01*
X175493770Y-81691312D01*
X175649534Y-81587234D01*
X175822604Y-81515546D01*
X176006333Y-81479000D01*
X176193667Y-81479000D01*
X176377396Y-81515546D01*
X176377396Y-81515546D01*
G37*
G36*
X182181000Y-80891000D02*
X180179000Y-80891000D01*
X180179000Y-78889000D01*
X182181000Y-78889000D01*
X182181000Y-80891000D01*
X182181000Y-80891000D01*
G37*
G36*
X176377396Y-78315546D02*
X176550466Y-78387234D01*
X176706230Y-78491312D01*
X176838688Y-78623770D01*
X176942766Y-78779534D01*
X177014454Y-78952604D01*
X177051000Y-79136333D01*
X177051000Y-79323667D01*
X177014454Y-79507396D01*
X176942766Y-79680466D01*
X176838688Y-79836230D01*
X176706230Y-79968688D01*
X176550466Y-80072766D01*
X176377396Y-80144454D01*
X176193667Y-80181000D01*
X176006333Y-80181000D01*
X175822604Y-80144454D01*
X175649534Y-80072766D01*
X175493770Y-79968688D01*
X175361312Y-79836230D01*
X175257234Y-79680466D01*
X175185546Y-79507396D01*
X175149000Y-79323667D01*
X175149000Y-79136333D01*
X175185546Y-78952604D01*
X175257234Y-78779534D01*
X175361312Y-78623770D01*
X175493770Y-78491312D01*
X175649534Y-78387234D01*
X175822604Y-78315546D01*
X176006333Y-78279000D01*
X176193667Y-78279000D01*
X176377396Y-78315546D01*
X176377396Y-78315546D01*
G37*
M02*
