M48
;DRILL file {KiCad (5.0.2)-1} date 05.01.2019 19:06:32
;FORMAT={-:-/ absolute / metric / decimal}
FMAT,2
METRIC,TZ
T1C0.400
T2C1.000
T3C1.100
%
G90
G05
T1
X143.08Y-74.746
X149.43Y-79.826
X154.129Y-82.62
X154.129Y-86.24
X154.891Y-90.05
X155.907Y-79.319
X155.907Y-91.32
X156.606Y-74.746
X156.606Y-78.302
X157.939Y-79.319
X157.939Y-82.43
X159.018Y-82.43
X159.78Y-80.588
X159.78Y-90.05
X160.542Y-82.43
X161.812Y-75.382
X161.812Y-77.35
X162.575Y-78.302
X162.575Y-80.588
X163.146Y-79.35
X163.59Y-82.176
X163.59Y-87.51
X163.59Y-94.622
X164.352Y-82.938
X164.352Y-88.653
X165.114Y-87.764
X165.114Y-95.384
X165.876Y-83.7
X165.876Y-84.97
X165.876Y-86.24
X165.876Y-92.59
X165.876Y-94.622
X167.528Y-91.257
X167.528Y-93.606
X168.988Y-80.462
X169.242Y-90.748
X169.623Y-95.384
X170.512Y-80.462
X171.083Y-76.016
X173.687Y-90.748
X173.814Y-94.622
X174.195Y-92.082
X174.195Y-93.098
X178.576Y-87.51
X178.576Y-88.78
T2
X176.1Y-79.23
X176.1Y-82.43
X176.1Y-85.63
T3
X181.18Y-79.89
X181.18Y-82.43
X181.18Y-84.97
X181.18Y-87.51
X181.18Y-90.05
X181.18Y-92.59
T0
M30
