G04 #@! TF.GenerationSoftware,KiCad,Pcbnew,(5.0.2)-1*
G04 #@! TF.CreationDate,2019-01-05T19:06:30+01:00*
G04 #@! TF.ProjectId,DrumMetter,4472756d-4d65-4747-9465-722e6b696361,01*
G04 #@! TF.SameCoordinates,Original*
G04 #@! TF.FileFunction,Copper,L1,Top*
G04 #@! TF.FilePolarity,Positive*
%FSLAX46Y46*%
G04 Gerber Fmt 4.6, Leading zero omitted, Abs format (unit mm)*
G04 Created by KiCad (PCBNEW (5.0.2)-1) date 05.01.2019 19:06:30*
%MOMM*%
%LPD*%
G01*
G04 APERTURE LIST*
G04 #@! TA.AperFunction,NonConductor*
%ADD10C,0.300000*%
G04 #@! TD*
G04 #@! TA.AperFunction,SMDPad,CuDef*
%ADD11R,0.300000X1.400000*%
G04 #@! TD*
G04 #@! TA.AperFunction,SMDPad,CuDef*
%ADD12R,1.400000X0.300000*%
G04 #@! TD*
G04 #@! TA.AperFunction,ComponentPad*
%ADD13C,1.900000*%
G04 #@! TD*
G04 #@! TA.AperFunction,ComponentPad*
%ADD14R,1.900000X1.900000*%
G04 #@! TD*
G04 #@! TA.AperFunction,SMDPad,CuDef*
%ADD15R,3.400000X1.524000*%
G04 #@! TD*
G04 #@! TA.AperFunction,SMDPad,CuDef*
%ADD16R,1.300000X1.500000*%
G04 #@! TD*
G04 #@! TA.AperFunction,ComponentPad*
%ADD17C,1.800000*%
G04 #@! TD*
G04 #@! TA.AperFunction,SMDPad,CuDef*
%ADD18R,1.560000X0.650000*%
G04 #@! TD*
G04 #@! TA.AperFunction,SMDPad,CuDef*
%ADD19R,1.800000X0.600000*%
G04 #@! TD*
G04 #@! TA.AperFunction,SMDPad,CuDef*
%ADD20R,1.000000X1.400000*%
G04 #@! TD*
G04 #@! TA.AperFunction,SMDPad,CuDef*
%ADD21R,1.600000X2.000000*%
G04 #@! TD*
G04 #@! TA.AperFunction,SMDPad,CuDef*
%ADD22R,2.000000X1.600000*%
G04 #@! TD*
G04 #@! TA.AperFunction,ViaPad*
%ADD23C,0.800000*%
G04 #@! TD*
G04 #@! TA.AperFunction,Conductor*
%ADD24C,0.250000*%
G04 #@! TD*
G04 #@! TA.AperFunction,Conductor*
%ADD25C,0.203200*%
G04 #@! TD*
G04 APERTURE END LIST*
D10*
X141029142Y-93710857D02*
X141429142Y-94910857D01*
X141829142Y-93710857D01*
X142457714Y-93710857D02*
X142572000Y-93710857D01*
X142686285Y-93768000D01*
X142743428Y-93825142D01*
X142800571Y-93939428D01*
X142857714Y-94168000D01*
X142857714Y-94453714D01*
X142800571Y-94682285D01*
X142743428Y-94796571D01*
X142686285Y-94853714D01*
X142572000Y-94910857D01*
X142457714Y-94910857D01*
X142343428Y-94853714D01*
X142286285Y-94796571D01*
X142229142Y-94682285D01*
X142172000Y-94453714D01*
X142172000Y-94168000D01*
X142229142Y-93939428D01*
X142286285Y-93825142D01*
X142343428Y-93768000D01*
X142457714Y-93710857D01*
X144000571Y-94910857D02*
X143314857Y-94910857D01*
X143657714Y-94910857D02*
X143657714Y-93710857D01*
X143543428Y-93882285D01*
X143429142Y-93996571D01*
X143314857Y-94053714D01*
D11*
G04 #@! TO.P,U2,16*
G04 #@! TO.N,N/C*
X171520000Y-94190000D03*
G04 #@! TO.P,U2,15*
X171020000Y-94190000D03*
G04 #@! TO.P,U2,14*
G04 #@! TO.N,VCC*
X170520000Y-94190000D03*
D12*
G04 #@! TO.P,U2,13*
G04 #@! TO.N,N/C*
X169420000Y-93590000D03*
G04 #@! TO.P,U2,12*
G04 #@! TO.N,GND*
X169420000Y-93090000D03*
G04 #@! TO.P,U2,11*
G04 #@! TO.N,/INT1*
X169420000Y-92590000D03*
G04 #@! TO.P,U2,10*
G04 #@! TO.N,GND*
X169420000Y-92090000D03*
G04 #@! TO.P,U2,9*
G04 #@! TO.N,N/C*
X169420000Y-91590000D03*
D11*
G04 #@! TO.P,U2,8*
X170520000Y-90990000D03*
G04 #@! TO.P,U2,7*
G04 #@! TO.N,GND*
X171020000Y-90990000D03*
G04 #@! TO.P,U2,6*
G04 #@! TO.N,/SDA*
X171520000Y-90990000D03*
D12*
G04 #@! TO.P,U2,5*
G04 #@! TO.N,GND*
X172620000Y-91590000D03*
G04 #@! TO.P,U2,4*
G04 #@! TO.N,/SCL*
X172620000Y-92090000D03*
G04 #@! TO.P,U2,3*
G04 #@! TO.N,N/C*
X172620000Y-92590000D03*
G04 #@! TO.P,U2,2*
G04 #@! TO.N,Net-(C5-Pad1)*
X172620000Y-93090000D03*
G04 #@! TO.P,U2,1*
G04 #@! TO.N,VCC*
X172620000Y-93590000D03*
G04 #@! TD*
D13*
G04 #@! TO.P,J1,6*
G04 #@! TO.N,N/C*
X181180000Y-92590000D03*
G04 #@! TO.P,J1,5*
G04 #@! TO.N,/ICSPCLK*
X181180000Y-90050000D03*
G04 #@! TO.P,J1,4*
G04 #@! TO.N,/ICSPDAT*
X181180000Y-87510000D03*
G04 #@! TO.P,J1,3*
G04 #@! TO.N,GND*
X181180000Y-84970000D03*
G04 #@! TO.P,J1,2*
G04 #@! TO.N,Net-(J1-Pad2)*
X181180000Y-82430000D03*
D14*
G04 #@! TO.P,J1,1*
G04 #@! TO.N,Net-(J1-Pad1)*
X181180000Y-79890000D03*
G04 #@! TD*
D15*
G04 #@! TO.P,Sw2,5*
G04 #@! TO.N,Net-(R6-Pad1)*
X142540000Y-82430000D03*
G04 #@! TO.P,Sw2,8*
X142540000Y-90050000D03*
G04 #@! TO.P,Sw2,7*
X142540000Y-87510000D03*
G04 #@! TO.P,Sw2,6*
X142540000Y-84970000D03*
G04 #@! TO.P,Sw2,3*
G04 #@! TO.N,/DIP3*
X151240000Y-84970000D03*
G04 #@! TO.P,Sw2,2*
G04 #@! TO.N,/DIP2*
X151240000Y-87510000D03*
G04 #@! TO.P,Sw2,1*
G04 #@! TO.N,/DIP1*
X151240000Y-90050000D03*
G04 #@! TO.P,Sw2,4*
G04 #@! TO.N,/DIP4*
X151240000Y-82430000D03*
G04 #@! TD*
D16*
G04 #@! TO.P,R1,2*
G04 #@! TO.N,Net-(J1-Pad1)*
X169750000Y-78700000D03*
G04 #@! TO.P,R1,1*
G04 #@! TO.N,VCC*
X169750000Y-76000000D03*
G04 #@! TD*
G04 #@! TO.P,R2,2*
G04 #@! TO.N,Net-(P1-Pad1)*
X144350000Y-78700000D03*
G04 #@! TO.P,R2,1*
G04 #@! TO.N,VCC*
X144350000Y-76000000D03*
G04 #@! TD*
G04 #@! TO.P,R3,2*
G04 #@! TO.N,Net-(P2-Pad1)*
X151970000Y-78700000D03*
G04 #@! TO.P,R3,1*
G04 #@! TO.N,VCC*
X151970000Y-76000000D03*
G04 #@! TD*
G04 #@! TO.P,R4,2*
G04 #@! TO.N,VCC*
X167464000Y-87082000D03*
G04 #@! TO.P,R4,1*
G04 #@! TO.N,/SDA*
X167464000Y-84382000D03*
G04 #@! TD*
G04 #@! TO.P,R5,2*
G04 #@! TO.N,/SCL*
X169496000Y-84382000D03*
G04 #@! TO.P,R5,1*
G04 #@! TO.N,VCC*
X169496000Y-87082000D03*
G04 #@! TD*
G04 #@! TO.P,R6,2*
G04 #@! TO.N,GND*
X141810000Y-76000000D03*
G04 #@! TO.P,R6,1*
G04 #@! TO.N,Net-(R6-Pad1)*
X141810000Y-78700000D03*
G04 #@! TD*
D17*
G04 #@! TO.P,Sw1,1*
G04 #@! TO.N,/3V*
X176100000Y-79230000D03*
G04 #@! TO.P,Sw1,2*
G04 #@! TO.N,Net-(C1-Pad1)*
X176100000Y-82430000D03*
G04 #@! TO.P,Sw1,3*
G04 #@! TO.N,Net-(J1-Pad2)*
X176100000Y-85630000D03*
G04 #@! TD*
D18*
G04 #@! TO.P,U1,5*
G04 #@! TO.N,VCC*
X157859000Y-78300000D03*
G04 #@! TO.P,U1,4*
G04 #@! TO.N,N/C*
X157859000Y-76400000D03*
G04 #@! TO.P,U1,3*
G04 #@! TO.N,Net-(C1-Pad1)*
X160559000Y-76400000D03*
G04 #@! TO.P,U1,2*
G04 #@! TO.N,GND*
X160559000Y-77350000D03*
G04 #@! TO.P,U1,1*
G04 #@! TO.N,Net-(C1-Pad1)*
X160559000Y-78300000D03*
G04 #@! TD*
D19*
G04 #@! TO.P,U3,14*
G04 #@! TO.N,GND*
X162059000Y-82430000D03*
G04 #@! TO.P,U3,13*
G04 #@! TO.N,/ICSPDAT*
X162059000Y-83700000D03*
G04 #@! TO.P,U3,12*
G04 #@! TO.N,/ICSPCLK*
X162059000Y-84970000D03*
G04 #@! TO.P,U3,11*
G04 #@! TO.N,/INT1*
X162059000Y-86240000D03*
G04 #@! TO.P,U3,10*
G04 #@! TO.N,/SCL*
X162059000Y-87510000D03*
G04 #@! TO.P,U3,9*
G04 #@! TO.N,/SDA*
X162059000Y-88780000D03*
G04 #@! TO.P,U3,8*
G04 #@! TO.N,/LED_GREEN*
X162059000Y-90050000D03*
G04 #@! TO.P,U3,7*
G04 #@! TO.N,/LED_RED*
X156359000Y-90050000D03*
G04 #@! TO.P,U3,6*
G04 #@! TO.N,/DIP1*
X156359000Y-88780000D03*
G04 #@! TO.P,U3,5*
G04 #@! TO.N,/DIP2*
X156359000Y-87510000D03*
G04 #@! TO.P,U3,4*
G04 #@! TO.N,Net-(J1-Pad1)*
X156359000Y-86240000D03*
G04 #@! TO.P,U3,3*
G04 #@! TO.N,/DIP3*
X156359000Y-84970000D03*
G04 #@! TO.P,U3,2*
G04 #@! TO.N,/DIP4*
X156359000Y-83700000D03*
G04 #@! TO.P,U3,1*
G04 #@! TO.N,VCC*
X156359000Y-82430000D03*
G04 #@! TD*
D20*
G04 #@! TO.P,P1,1*
G04 #@! TO.N,Net-(P1-Pad1)*
X146890000Y-76225000D03*
G04 #@! TO.P,P1,2*
G04 #@! TO.N,/LED_GREEN*
X146890000Y-78475000D03*
G04 #@! TD*
G04 #@! TO.P,P2,1*
G04 #@! TO.N,Net-(P2-Pad1)*
X149430000Y-76225000D03*
G04 #@! TO.P,P2,2*
G04 #@! TO.N,/LED_RED*
X149430000Y-78475000D03*
G04 #@! TD*
D21*
G04 #@! TO.P,C4,2*
G04 #@! TO.N,GND*
X164670000Y-75350000D03*
G04 #@! TO.P,C4,1*
G04 #@! TO.N,VCC*
X164670000Y-79350000D03*
G04 #@! TD*
G04 #@! TO.P,C1,2*
G04 #@! TO.N,GND*
X167210000Y-75350000D03*
G04 #@! TO.P,C1,1*
G04 #@! TO.N,Net-(C1-Pad1)*
X167210000Y-79350000D03*
G04 #@! TD*
G04 #@! TO.P,C2,2*
G04 #@! TO.N,GND*
X154510000Y-79350000D03*
G04 #@! TO.P,C2,1*
G04 #@! TO.N,VCC*
X154510000Y-75350000D03*
G04 #@! TD*
D22*
G04 #@! TO.P,C3,2*
G04 #@! TO.N,GND*
X157336000Y-93352000D03*
G04 #@! TO.P,C3,1*
G04 #@! TO.N,VCC*
X161336000Y-93352000D03*
G04 #@! TD*
D23*
G04 #@! TO.N,GND*
X161812500Y-77350000D03*
X160542500Y-82430000D03*
X161812500Y-75381500D03*
X159018500Y-82430000D03*
X155907000Y-79318500D03*
X173687000Y-90748500D03*
X167527500Y-93606000D03*
X167527500Y-91256500D03*
X155907000Y-91320000D03*
X169242000Y-90748500D03*
X143080000Y-74746500D03*
G04 #@! TO.N,Net-(C1-Pad1)*
X162574500Y-80588500D03*
X162574500Y-78302500D03*
X170512000Y-80461500D03*
X168988000Y-80461500D03*
G04 #@! TO.N,VCC*
X157939000Y-82430000D03*
X156605500Y-78302500D03*
X156605500Y-74746500D03*
X157939000Y-79318500D03*
X165114500Y-87764000D03*
X163146000Y-79350000D03*
X169623000Y-95384000D03*
X173814000Y-94622000D03*
X165114500Y-95384000D03*
X171083500Y-76016500D03*
G04 #@! TO.N,Net-(C5-Pad1)*
X174195000Y-93098000D03*
G04 #@! TO.N,Net-(J1-Pad1)*
X154129000Y-86240000D03*
X154129000Y-82620500D03*
G04 #@! TO.N,/ICSPDAT*
X165876500Y-83700000D03*
X178576500Y-87510000D03*
G04 #@! TO.N,/ICSPCLK*
X165876500Y-84970000D03*
X178576500Y-88780000D03*
G04 #@! TO.N,/LED_RED*
X154891000Y-90050000D03*
X149430000Y-79826500D03*
G04 #@! TO.N,/LED_GREEN*
X159780500Y-90050000D03*
X159780500Y-80588500D03*
G04 #@! TO.N,/SDA*
X164352500Y-88653000D03*
X164352500Y-82938000D03*
G04 #@! TO.N,/SCL*
X163590500Y-87510000D03*
X163590500Y-94622000D03*
X165876500Y-94622000D03*
X174195000Y-92082000D03*
X163590500Y-82176000D03*
G04 #@! TO.N,/INT1*
X165876500Y-86240000D03*
X165876500Y-92590000D03*
G04 #@! TD*
D24*
G04 #@! TO.N,GND*
X162059000Y-82430000D02*
X160542500Y-82430000D01*
X161812500Y-77350000D02*
X160559000Y-77350000D01*
X164670000Y-75350000D02*
X161844000Y-75350000D01*
X161844000Y-75350000D02*
X161812500Y-75381500D01*
X154510000Y-79350000D02*
X155875500Y-79350000D01*
X160542500Y-82430000D02*
X159018500Y-82430000D01*
X155875500Y-79350000D02*
X155907000Y-79318500D01*
X167210000Y-75350000D02*
X167210000Y-76778500D01*
X164670000Y-76842000D02*
X164670000Y-75350000D01*
X164987500Y-77159500D02*
X164670000Y-76842000D01*
X166829000Y-77159500D02*
X164987500Y-77159500D01*
X167210000Y-76778500D02*
X166829000Y-77159500D01*
X172620000Y-91590000D02*
X173480500Y-91590000D01*
X173480500Y-91590000D02*
X173687000Y-91383500D01*
X173687000Y-91383500D02*
X173687000Y-90748500D01*
X169420000Y-92090000D02*
X168361000Y-92090000D01*
X168361000Y-92090000D02*
X167527500Y-91256500D01*
X168043500Y-93090000D02*
X169420000Y-93090000D01*
X168043500Y-93090000D02*
X167527500Y-93606000D01*
X164543000Y-93606000D02*
X167527500Y-93606000D01*
X163019000Y-92082000D02*
X164543000Y-93606000D01*
X157304000Y-92082000D02*
X157336000Y-92082000D01*
X157336000Y-92082000D02*
X163019000Y-92082000D01*
X156542000Y-91320000D02*
X157304000Y-92082000D01*
X155907000Y-91320000D02*
X156542000Y-91320000D01*
X157336000Y-93352000D02*
X157336000Y-92082000D01*
X169242000Y-89923000D02*
X169242000Y-90748500D01*
X171020000Y-89923000D02*
X171020000Y-90990000D01*
X171020000Y-89923000D02*
X170575500Y-89478500D01*
X170575500Y-89478500D02*
X169686500Y-89478500D01*
X169686500Y-89478500D02*
X169242000Y-89923000D01*
X141810000Y-76000000D02*
X141810000Y-75000500D01*
X141810000Y-75000500D02*
X142064000Y-74746500D01*
X142064000Y-74746500D02*
X143080000Y-74746500D01*
G04 #@! TO.N,Net-(C1-Pad1)*
X160559000Y-78300000D02*
X160561500Y-78302500D01*
X162574500Y-80588500D02*
X162765000Y-80779000D01*
X160561500Y-78302500D02*
X162574500Y-78302500D01*
X162574500Y-80588500D02*
X162886498Y-80900498D01*
X167210000Y-80900498D02*
X162886498Y-80900498D01*
X167210000Y-79350000D02*
X167210000Y-80900498D01*
X167210000Y-80900498D02*
X167977502Y-80900498D01*
X173687000Y-82430000D02*
X176100000Y-82430000D01*
X171718500Y-80461500D02*
X173687000Y-82430000D01*
X170512000Y-80461500D02*
X171718500Y-80461500D01*
X167977502Y-80900498D02*
X168416500Y-80461500D01*
X168416500Y-80461500D02*
X168988000Y-80461500D01*
X160559000Y-76400000D02*
X162259500Y-76400000D01*
X162574500Y-76715000D02*
X162574500Y-78302500D01*
X162259500Y-76400000D02*
X162574500Y-76715000D01*
G04 #@! TO.N,VCC*
X156359000Y-82430000D02*
X157939000Y-82430000D01*
X144667500Y-74746500D02*
X151970000Y-74746500D01*
X151970000Y-76000000D02*
X151970000Y-74746500D01*
X157859000Y-78300000D02*
X156608000Y-78300000D01*
X156608000Y-78300000D02*
X156605500Y-78302500D01*
X154510000Y-75350000D02*
X155113500Y-74746500D01*
X155526000Y-74746500D02*
X155113500Y-74746500D01*
X156605500Y-74746500D02*
X155526000Y-74746500D01*
X164670000Y-79350000D02*
X163146000Y-79350000D01*
X163146000Y-79350000D02*
X157970500Y-79350000D01*
X157970500Y-79350000D02*
X157939000Y-79318500D01*
X169496000Y-87082000D02*
X169496000Y-88145000D01*
X166321000Y-88335500D02*
X167464000Y-88335500D01*
X166321000Y-88335500D02*
X165749500Y-87764000D01*
X165749500Y-87764000D02*
X165114500Y-87764000D01*
X169305500Y-88335500D02*
X167464000Y-88335500D01*
X169496000Y-88145000D02*
X169305500Y-88335500D01*
X167464000Y-87082000D02*
X167464000Y-88335500D01*
X151970000Y-74746500D02*
X153494000Y-74746500D01*
X153906500Y-74746500D02*
X154510000Y-75350000D01*
X153494000Y-74746500D02*
X153906500Y-74746500D01*
X170520000Y-94190000D02*
X170520000Y-95122000D01*
X170258000Y-95384000D02*
X169623000Y-95384000D01*
X170520000Y-95122000D02*
X170258000Y-95384000D01*
X173480500Y-93590000D02*
X172620000Y-93590000D01*
X173480500Y-93590000D02*
X173814000Y-93923500D01*
X173814000Y-93923500D02*
X173814000Y-94622000D01*
X161336000Y-94717000D02*
X162003000Y-95384000D01*
X161336000Y-94717000D02*
X161336000Y-93352000D01*
X162003000Y-95384000D02*
X165114500Y-95384000D01*
X169750000Y-76000000D02*
X171067000Y-76000000D01*
X171067000Y-76000000D02*
X171083500Y-76016500D01*
X144350000Y-76000000D02*
X144350000Y-75064000D01*
X144350000Y-75064000D02*
X144667500Y-74746500D01*
G04 #@! TO.N,Net-(C5-Pad1)*
X172620000Y-93090000D02*
X174187000Y-93090000D01*
X174187000Y-93090000D02*
X174195000Y-93098000D01*
G04 #@! TO.N,Net-(J1-Pad1)*
X154129000Y-86240000D02*
X154065500Y-86240000D01*
X154388502Y-81350500D02*
X169369000Y-81350500D01*
X156359000Y-86240000D02*
X154065500Y-86240000D01*
X154129000Y-82620500D02*
X154129000Y-81610002D01*
X154129000Y-81610002D02*
X154388502Y-81350500D01*
X169750000Y-80969500D02*
X169750000Y-78700000D01*
X169750000Y-80969500D02*
X169369000Y-81350500D01*
X170559000Y-78700000D02*
X171909000Y-77350000D01*
X169750000Y-78700000D02*
X170559000Y-78700000D01*
X180291000Y-77350000D02*
X181180000Y-78239000D01*
X181180000Y-78239000D02*
X181180000Y-79890000D01*
X171909000Y-77350000D02*
X180291000Y-77350000D01*
G04 #@! TO.N,Net-(J1-Pad2)*
X177535500Y-85630000D02*
X176100000Y-85630000D01*
X177941500Y-85224000D02*
X177535500Y-85630000D01*
X177941500Y-83573000D02*
X177941500Y-85224000D01*
X179084500Y-82430000D02*
X177941500Y-83573000D01*
X181180000Y-82430000D02*
X179084500Y-82430000D01*
G04 #@! TO.N,/ICSPDAT*
X162059000Y-83700000D02*
X165876500Y-83700000D01*
X178576500Y-87510000D02*
X181180000Y-87510000D01*
G04 #@! TO.N,/ICSPCLK*
X165876500Y-84970000D02*
X162059000Y-84970000D01*
X178576500Y-88780000D02*
X178576500Y-89605500D01*
X178576500Y-89605500D02*
X179021000Y-90050000D01*
X181180000Y-90050000D02*
X179021000Y-90050000D01*
G04 #@! TO.N,/LED_RED*
X149430000Y-78475000D02*
X149430000Y-79826500D01*
X154891000Y-90050000D02*
X156359000Y-90050000D01*
G04 #@! TO.N,Net-(P1-Pad1)*
X144350000Y-78700000D02*
X145159000Y-78700000D01*
X145856000Y-76225000D02*
X146890000Y-76225000D01*
X145620000Y-76461000D02*
X145856000Y-76225000D01*
X145620000Y-78239000D02*
X145620000Y-76461000D01*
X145159000Y-78700000D02*
X145620000Y-78239000D01*
G04 #@! TO.N,Net-(P2-Pad1)*
X151970000Y-78700000D02*
X151097500Y-78700000D01*
X150400500Y-76225000D02*
X149430000Y-76225000D01*
X150700000Y-76524500D02*
X150400500Y-76225000D01*
X150700000Y-78302500D02*
X150700000Y-76524500D01*
X151097500Y-78700000D02*
X150700000Y-78302500D01*
G04 #@! TO.N,/LED_GREEN*
X147588500Y-80588500D02*
X146890000Y-79890000D01*
X146890000Y-79890000D02*
X146890000Y-78475000D01*
X162059000Y-90050000D02*
X159780500Y-90050000D01*
X159780500Y-80588500D02*
X158885998Y-80588500D01*
X147900498Y-80900498D02*
X147588500Y-80588500D01*
X158574000Y-80900498D02*
X147900498Y-80900498D01*
X158885998Y-80588500D02*
X158574000Y-80900498D01*
G04 #@! TO.N,/SDA*
X162186000Y-88653000D02*
X164352500Y-88653000D01*
X162059000Y-88780000D02*
X162186000Y-88653000D01*
X167464000Y-83192000D02*
X167464000Y-84382000D01*
X167210000Y-82938000D02*
X167464000Y-83192000D01*
X164352500Y-82938000D02*
X167210000Y-82938000D01*
X171520000Y-90990000D02*
X171520000Y-89153000D01*
X165622500Y-88653000D02*
X164352500Y-88653000D01*
X165755002Y-88785502D02*
X165622500Y-88653000D01*
X171152502Y-88785502D02*
X165755002Y-88785502D01*
X171520000Y-89153000D02*
X171152502Y-88785502D01*
G04 #@! TO.N,/SCL*
X165876500Y-94622000D02*
X163590500Y-94622000D01*
X174187000Y-92090000D02*
X174195000Y-92082000D01*
X174187000Y-92090000D02*
X172620000Y-92090000D01*
X162059000Y-87510000D02*
X163590500Y-87510000D01*
X169496000Y-84382000D02*
X169496000Y-83255500D01*
X168416500Y-82176000D02*
X163590500Y-82176000D01*
X169496000Y-83255500D02*
X168416500Y-82176000D01*
G04 #@! TO.N,/DIP4*
X151240000Y-82430000D02*
X153113000Y-82430000D01*
X153621000Y-83700000D02*
X156359000Y-83700000D01*
X153303500Y-83382500D02*
X153621000Y-83700000D01*
X153303500Y-82620500D02*
X153303500Y-83382500D01*
X153113000Y-82430000D02*
X153303500Y-82620500D01*
G04 #@! TO.N,/DIP1*
X151240000Y-90050000D02*
X153176500Y-90050000D01*
X154446500Y-88780000D02*
X156359000Y-88780000D01*
X153176500Y-90050000D02*
X154446500Y-88780000D01*
G04 #@! TO.N,/DIP2*
X151240000Y-87510000D02*
X156359000Y-87510000D01*
G04 #@! TO.N,/DIP3*
X151240000Y-84970000D02*
X156359000Y-84970000D01*
G04 #@! TO.N,/INT1*
X169420000Y-92590000D02*
X165876500Y-92590000D01*
X165876500Y-86240000D02*
X162059000Y-86240000D01*
G04 #@! TO.N,Net-(R6-Pad1)*
X142540000Y-84970000D02*
X145937500Y-84970000D01*
X142540000Y-87510000D02*
X145937500Y-87510000D01*
X145937500Y-87510000D02*
X145937500Y-89224500D01*
X145937500Y-84970000D02*
X145937500Y-87510000D01*
X145937500Y-89224500D02*
X145112000Y-90050000D01*
X145112000Y-90050000D02*
X142540000Y-90050000D01*
X142540000Y-82430000D02*
X145239000Y-82430000D01*
X145937500Y-83128500D02*
X145937500Y-84970000D01*
X145239000Y-82430000D02*
X145937500Y-83128500D01*
X141810000Y-78700000D02*
X141810000Y-79699500D01*
X142540000Y-80429500D02*
X142540000Y-82430000D01*
X141810000Y-79699500D02*
X142540000Y-80429500D01*
G04 #@! TD*
D25*
G04 #@! TO.N,VCC*
G36*
X173116401Y-82898283D02*
X173157383Y-82959617D01*
X173400374Y-83121977D01*
X173614652Y-83164600D01*
X173614653Y-83164600D01*
X173686999Y-83178991D01*
X173759346Y-83164600D01*
X174728400Y-83164600D01*
X174728400Y-84996560D01*
X174590400Y-85329722D01*
X174590400Y-85930278D01*
X174728400Y-86263440D01*
X174728400Y-87637000D01*
X174737330Y-87678650D01*
X174760323Y-87710943D01*
X174793923Y-87731979D01*
X174833016Y-87738555D01*
X177566900Y-87657351D01*
X177566900Y-87710822D01*
X177720603Y-88081892D01*
X177783711Y-88145000D01*
X177720603Y-88208108D01*
X177566900Y-88579178D01*
X177566900Y-88980822D01*
X177720603Y-89351892D01*
X177841900Y-89473189D01*
X177841900Y-89533154D01*
X177827509Y-89605500D01*
X177841900Y-89677846D01*
X177841900Y-89677848D01*
X177884524Y-89892126D01*
X178046884Y-90135117D01*
X178108220Y-90176100D01*
X178450398Y-90518278D01*
X178491383Y-90579617D01*
X178734374Y-90741977D01*
X178948652Y-90784600D01*
X178948653Y-90784600D01*
X179021000Y-90798991D01*
X179093346Y-90784600D01*
X179796183Y-90784600D01*
X179857835Y-90933442D01*
X180244393Y-91320000D01*
X179857835Y-91706558D01*
X179620400Y-92279776D01*
X179620400Y-92900224D01*
X179857835Y-93473442D01*
X180296558Y-93912165D01*
X180869776Y-94149600D01*
X181490224Y-94149600D01*
X182063442Y-93912165D01*
X182315401Y-93660206D01*
X182315401Y-95815400D01*
X145023100Y-95815400D01*
X145023100Y-90784600D01*
X145039654Y-90784600D01*
X145112000Y-90798991D01*
X145184346Y-90784600D01*
X145184348Y-90784600D01*
X145398626Y-90741977D01*
X145641617Y-90579617D01*
X145682602Y-90518278D01*
X146405783Y-89795099D01*
X146467117Y-89754117D01*
X146629477Y-89511126D01*
X146672100Y-89296848D01*
X146672100Y-89296847D01*
X146686491Y-89224501D01*
X146672100Y-89152154D01*
X146672100Y-87582348D01*
X146686491Y-87510000D01*
X146672100Y-87437652D01*
X146672100Y-85042348D01*
X146686491Y-84970000D01*
X146672100Y-84897652D01*
X146672100Y-83200846D01*
X146686491Y-83128499D01*
X146661307Y-83001892D01*
X146629477Y-82841874D01*
X146625024Y-82835210D01*
X148918458Y-82792739D01*
X148918458Y-83192000D01*
X148965770Y-83429854D01*
X149100503Y-83631497D01*
X149203025Y-83700000D01*
X149100503Y-83768503D01*
X148965770Y-83970146D01*
X148918458Y-84208000D01*
X148918458Y-85732000D01*
X148965770Y-85969854D01*
X149100503Y-86171497D01*
X149203025Y-86240000D01*
X149100503Y-86308503D01*
X148965770Y-86510146D01*
X148918458Y-86748000D01*
X148918458Y-88272000D01*
X148965770Y-88509854D01*
X149100503Y-88711497D01*
X149203025Y-88780000D01*
X149100503Y-88848503D01*
X148965770Y-89050146D01*
X148918458Y-89288000D01*
X148918458Y-90812000D01*
X148965770Y-91049854D01*
X149100503Y-91251497D01*
X149302146Y-91386230D01*
X149540000Y-91433542D01*
X152940000Y-91433542D01*
X153177854Y-91386230D01*
X153379497Y-91251497D01*
X153514230Y-91049854D01*
X153561542Y-90812000D01*
X153561542Y-90676218D01*
X153706117Y-90579617D01*
X153747102Y-90518278D01*
X153920401Y-90344979D01*
X154035103Y-90621892D01*
X154319108Y-90905897D01*
X154690178Y-91059600D01*
X154922078Y-91059600D01*
X154897400Y-91119178D01*
X154897400Y-91520822D01*
X155051103Y-91891892D01*
X155335108Y-92175897D01*
X155706178Y-92329600D01*
X155758696Y-92329600D01*
X155714458Y-92552000D01*
X155714458Y-94152000D01*
X155761770Y-94389854D01*
X155896503Y-94591497D01*
X156098146Y-94726230D01*
X156336000Y-94773542D01*
X158336000Y-94773542D01*
X158573854Y-94726230D01*
X158775497Y-94591497D01*
X158910230Y-94389854D01*
X158957542Y-94152000D01*
X158957542Y-93656800D01*
X159726400Y-93656800D01*
X159726400Y-94273257D01*
X159819206Y-94497311D01*
X159990689Y-94668794D01*
X160214743Y-94761600D01*
X161031200Y-94761600D01*
X161183600Y-94609200D01*
X161183600Y-93504400D01*
X159878800Y-93504400D01*
X159726400Y-93656800D01*
X158957542Y-93656800D01*
X158957542Y-92816600D01*
X159726400Y-92816600D01*
X159726400Y-93047200D01*
X159878800Y-93199600D01*
X161183600Y-93199600D01*
X161183600Y-93179600D01*
X161488400Y-93179600D01*
X161488400Y-93199600D01*
X162793200Y-93199600D01*
X162945460Y-93047340D01*
X163510519Y-93612400D01*
X163389678Y-93612400D01*
X163018608Y-93766103D01*
X162945600Y-93839111D01*
X162945600Y-93656800D01*
X162793200Y-93504400D01*
X161488400Y-93504400D01*
X161488400Y-94609200D01*
X161640800Y-94761600D01*
X162457257Y-94761600D01*
X162580900Y-94710386D01*
X162580900Y-94822822D01*
X162734603Y-95193892D01*
X163018608Y-95477897D01*
X163389678Y-95631600D01*
X163791322Y-95631600D01*
X164162392Y-95477897D01*
X164283689Y-95356600D01*
X165183311Y-95356600D01*
X165304608Y-95477897D01*
X165675678Y-95631600D01*
X166077322Y-95631600D01*
X166448392Y-95477897D01*
X166732397Y-95193892D01*
X166886100Y-94822822D01*
X166886100Y-94421178D01*
X166865743Y-94372032D01*
X166955608Y-94461897D01*
X167326678Y-94615600D01*
X167728322Y-94615600D01*
X168099392Y-94461897D01*
X168341221Y-94220068D01*
X168482146Y-94314230D01*
X168720000Y-94361542D01*
X169893658Y-94361542D01*
X169760400Y-94494800D01*
X169760400Y-95011257D01*
X169853206Y-95235311D01*
X170024689Y-95406794D01*
X170248743Y-95499600D01*
X170292600Y-95499600D01*
X170445000Y-95347200D01*
X170445000Y-95339184D01*
X170632146Y-95464230D01*
X170731865Y-95484065D01*
X170747400Y-95499600D01*
X170791257Y-95499600D01*
X170797326Y-95497086D01*
X170870000Y-95511542D01*
X171170000Y-95511542D01*
X171270000Y-95491651D01*
X171370000Y-95511542D01*
X171670000Y-95511542D01*
X171907854Y-95464230D01*
X172109497Y-95329497D01*
X172244230Y-95127854D01*
X172291542Y-94890000D01*
X172291542Y-94349600D01*
X172315200Y-94349600D01*
X172322200Y-94342600D01*
X172917800Y-94342600D01*
X172924800Y-94349600D01*
X173441257Y-94349600D01*
X173665311Y-94256794D01*
X173836794Y-94085311D01*
X173851962Y-94048692D01*
X173994178Y-94107600D01*
X174395822Y-94107600D01*
X174766892Y-93953897D01*
X175050897Y-93669892D01*
X175204600Y-93298822D01*
X175204600Y-92897178D01*
X175077362Y-92590000D01*
X175204600Y-92282822D01*
X175204600Y-91881178D01*
X175050897Y-91510108D01*
X174766892Y-91226103D01*
X174609037Y-91160717D01*
X174696600Y-90949322D01*
X174696600Y-90547678D01*
X174542897Y-90176608D01*
X174258892Y-89892603D01*
X173887822Y-89738900D01*
X173486178Y-89738900D01*
X173115108Y-89892603D01*
X172831103Y-90176608D01*
X172677400Y-90547678D01*
X172677400Y-90818458D01*
X172291542Y-90818458D01*
X172291542Y-90290000D01*
X172254600Y-90104280D01*
X172254600Y-89225348D01*
X172268991Y-89153000D01*
X172211977Y-88866373D01*
X172158623Y-88786524D01*
X172049617Y-88623383D01*
X171988278Y-88582398D01*
X171723104Y-88317224D01*
X171682119Y-88255885D01*
X171439128Y-88093525D01*
X171224850Y-88050902D01*
X171224848Y-88050902D01*
X171152502Y-88036511D01*
X171080156Y-88050902D01*
X170715154Y-88050902D01*
X170755600Y-87953257D01*
X170755600Y-87386800D01*
X170603200Y-87234400D01*
X169648400Y-87234400D01*
X169648400Y-87254400D01*
X169343600Y-87254400D01*
X169343600Y-87234400D01*
X167616400Y-87234400D01*
X167616400Y-87254400D01*
X167311600Y-87254400D01*
X167311600Y-87234400D01*
X167291600Y-87234400D01*
X167291600Y-86929600D01*
X167311600Y-86929600D01*
X167311600Y-86909600D01*
X167616400Y-86909600D01*
X167616400Y-86929600D01*
X169343600Y-86929600D01*
X169343600Y-86909600D01*
X169648400Y-86909600D01*
X169648400Y-86929600D01*
X170603200Y-86929600D01*
X170755600Y-86777200D01*
X170755600Y-86210743D01*
X170662794Y-85986689D01*
X170491311Y-85815206D01*
X170278711Y-85727144D01*
X170383854Y-85706230D01*
X170585497Y-85571497D01*
X170720230Y-85369854D01*
X170767542Y-85132000D01*
X170767542Y-83632000D01*
X170720230Y-83394146D01*
X170585497Y-83192503D01*
X170383854Y-83057770D01*
X170198319Y-83020865D01*
X170187977Y-82968873D01*
X170120560Y-82867977D01*
X170025617Y-82725883D01*
X169964281Y-82684900D01*
X169377234Y-82097853D01*
X169441346Y-82085100D01*
X169441348Y-82085100D01*
X169655626Y-82042477D01*
X169898617Y-81880117D01*
X169939602Y-81818778D01*
X170218281Y-81540100D01*
X170279617Y-81499117D01*
X170301121Y-81466934D01*
X170311178Y-81471100D01*
X170712822Y-81471100D01*
X171083892Y-81317397D01*
X171205189Y-81196100D01*
X171414220Y-81196100D01*
X173116401Y-82898283D01*
X173116401Y-82898283D01*
G37*
X173116401Y-82898283D02*
X173157383Y-82959617D01*
X173400374Y-83121977D01*
X173614652Y-83164600D01*
X173614653Y-83164600D01*
X173686999Y-83178991D01*
X173759346Y-83164600D01*
X174728400Y-83164600D01*
X174728400Y-84996560D01*
X174590400Y-85329722D01*
X174590400Y-85930278D01*
X174728400Y-86263440D01*
X174728400Y-87637000D01*
X174737330Y-87678650D01*
X174760323Y-87710943D01*
X174793923Y-87731979D01*
X174833016Y-87738555D01*
X177566900Y-87657351D01*
X177566900Y-87710822D01*
X177720603Y-88081892D01*
X177783711Y-88145000D01*
X177720603Y-88208108D01*
X177566900Y-88579178D01*
X177566900Y-88980822D01*
X177720603Y-89351892D01*
X177841900Y-89473189D01*
X177841900Y-89533154D01*
X177827509Y-89605500D01*
X177841900Y-89677846D01*
X177841900Y-89677848D01*
X177884524Y-89892126D01*
X178046884Y-90135117D01*
X178108220Y-90176100D01*
X178450398Y-90518278D01*
X178491383Y-90579617D01*
X178734374Y-90741977D01*
X178948652Y-90784600D01*
X178948653Y-90784600D01*
X179021000Y-90798991D01*
X179093346Y-90784600D01*
X179796183Y-90784600D01*
X179857835Y-90933442D01*
X180244393Y-91320000D01*
X179857835Y-91706558D01*
X179620400Y-92279776D01*
X179620400Y-92900224D01*
X179857835Y-93473442D01*
X180296558Y-93912165D01*
X180869776Y-94149600D01*
X181490224Y-94149600D01*
X182063442Y-93912165D01*
X182315401Y-93660206D01*
X182315401Y-95815400D01*
X145023100Y-95815400D01*
X145023100Y-90784600D01*
X145039654Y-90784600D01*
X145112000Y-90798991D01*
X145184346Y-90784600D01*
X145184348Y-90784600D01*
X145398626Y-90741977D01*
X145641617Y-90579617D01*
X145682602Y-90518278D01*
X146405783Y-89795099D01*
X146467117Y-89754117D01*
X146629477Y-89511126D01*
X146672100Y-89296848D01*
X146672100Y-89296847D01*
X146686491Y-89224501D01*
X146672100Y-89152154D01*
X146672100Y-87582348D01*
X146686491Y-87510000D01*
X146672100Y-87437652D01*
X146672100Y-85042348D01*
X146686491Y-84970000D01*
X146672100Y-84897652D01*
X146672100Y-83200846D01*
X146686491Y-83128499D01*
X146661307Y-83001892D01*
X146629477Y-82841874D01*
X146625024Y-82835210D01*
X148918458Y-82792739D01*
X148918458Y-83192000D01*
X148965770Y-83429854D01*
X149100503Y-83631497D01*
X149203025Y-83700000D01*
X149100503Y-83768503D01*
X148965770Y-83970146D01*
X148918458Y-84208000D01*
X148918458Y-85732000D01*
X148965770Y-85969854D01*
X149100503Y-86171497D01*
X149203025Y-86240000D01*
X149100503Y-86308503D01*
X148965770Y-86510146D01*
X148918458Y-86748000D01*
X148918458Y-88272000D01*
X148965770Y-88509854D01*
X149100503Y-88711497D01*
X149203025Y-88780000D01*
X149100503Y-88848503D01*
X148965770Y-89050146D01*
X148918458Y-89288000D01*
X148918458Y-90812000D01*
X148965770Y-91049854D01*
X149100503Y-91251497D01*
X149302146Y-91386230D01*
X149540000Y-91433542D01*
X152940000Y-91433542D01*
X153177854Y-91386230D01*
X153379497Y-91251497D01*
X153514230Y-91049854D01*
X153561542Y-90812000D01*
X153561542Y-90676218D01*
X153706117Y-90579617D01*
X153747102Y-90518278D01*
X153920401Y-90344979D01*
X154035103Y-90621892D01*
X154319108Y-90905897D01*
X154690178Y-91059600D01*
X154922078Y-91059600D01*
X154897400Y-91119178D01*
X154897400Y-91520822D01*
X155051103Y-91891892D01*
X155335108Y-92175897D01*
X155706178Y-92329600D01*
X155758696Y-92329600D01*
X155714458Y-92552000D01*
X155714458Y-94152000D01*
X155761770Y-94389854D01*
X155896503Y-94591497D01*
X156098146Y-94726230D01*
X156336000Y-94773542D01*
X158336000Y-94773542D01*
X158573854Y-94726230D01*
X158775497Y-94591497D01*
X158910230Y-94389854D01*
X158957542Y-94152000D01*
X158957542Y-93656800D01*
X159726400Y-93656800D01*
X159726400Y-94273257D01*
X159819206Y-94497311D01*
X159990689Y-94668794D01*
X160214743Y-94761600D01*
X161031200Y-94761600D01*
X161183600Y-94609200D01*
X161183600Y-93504400D01*
X159878800Y-93504400D01*
X159726400Y-93656800D01*
X158957542Y-93656800D01*
X158957542Y-92816600D01*
X159726400Y-92816600D01*
X159726400Y-93047200D01*
X159878800Y-93199600D01*
X161183600Y-93199600D01*
X161183600Y-93179600D01*
X161488400Y-93179600D01*
X161488400Y-93199600D01*
X162793200Y-93199600D01*
X162945460Y-93047340D01*
X163510519Y-93612400D01*
X163389678Y-93612400D01*
X163018608Y-93766103D01*
X162945600Y-93839111D01*
X162945600Y-93656800D01*
X162793200Y-93504400D01*
X161488400Y-93504400D01*
X161488400Y-94609200D01*
X161640800Y-94761600D01*
X162457257Y-94761600D01*
X162580900Y-94710386D01*
X162580900Y-94822822D01*
X162734603Y-95193892D01*
X163018608Y-95477897D01*
X163389678Y-95631600D01*
X163791322Y-95631600D01*
X164162392Y-95477897D01*
X164283689Y-95356600D01*
X165183311Y-95356600D01*
X165304608Y-95477897D01*
X165675678Y-95631600D01*
X166077322Y-95631600D01*
X166448392Y-95477897D01*
X166732397Y-95193892D01*
X166886100Y-94822822D01*
X166886100Y-94421178D01*
X166865743Y-94372032D01*
X166955608Y-94461897D01*
X167326678Y-94615600D01*
X167728322Y-94615600D01*
X168099392Y-94461897D01*
X168341221Y-94220068D01*
X168482146Y-94314230D01*
X168720000Y-94361542D01*
X169893658Y-94361542D01*
X169760400Y-94494800D01*
X169760400Y-95011257D01*
X169853206Y-95235311D01*
X170024689Y-95406794D01*
X170248743Y-95499600D01*
X170292600Y-95499600D01*
X170445000Y-95347200D01*
X170445000Y-95339184D01*
X170632146Y-95464230D01*
X170731865Y-95484065D01*
X170747400Y-95499600D01*
X170791257Y-95499600D01*
X170797326Y-95497086D01*
X170870000Y-95511542D01*
X171170000Y-95511542D01*
X171270000Y-95491651D01*
X171370000Y-95511542D01*
X171670000Y-95511542D01*
X171907854Y-95464230D01*
X172109497Y-95329497D01*
X172244230Y-95127854D01*
X172291542Y-94890000D01*
X172291542Y-94349600D01*
X172315200Y-94349600D01*
X172322200Y-94342600D01*
X172917800Y-94342600D01*
X172924800Y-94349600D01*
X173441257Y-94349600D01*
X173665311Y-94256794D01*
X173836794Y-94085311D01*
X173851962Y-94048692D01*
X173994178Y-94107600D01*
X174395822Y-94107600D01*
X174766892Y-93953897D01*
X175050897Y-93669892D01*
X175204600Y-93298822D01*
X175204600Y-92897178D01*
X175077362Y-92590000D01*
X175204600Y-92282822D01*
X175204600Y-91881178D01*
X175050897Y-91510108D01*
X174766892Y-91226103D01*
X174609037Y-91160717D01*
X174696600Y-90949322D01*
X174696600Y-90547678D01*
X174542897Y-90176608D01*
X174258892Y-89892603D01*
X173887822Y-89738900D01*
X173486178Y-89738900D01*
X173115108Y-89892603D01*
X172831103Y-90176608D01*
X172677400Y-90547678D01*
X172677400Y-90818458D01*
X172291542Y-90818458D01*
X172291542Y-90290000D01*
X172254600Y-90104280D01*
X172254600Y-89225348D01*
X172268991Y-89153000D01*
X172211977Y-88866373D01*
X172158623Y-88786524D01*
X172049617Y-88623383D01*
X171988278Y-88582398D01*
X171723104Y-88317224D01*
X171682119Y-88255885D01*
X171439128Y-88093525D01*
X171224850Y-88050902D01*
X171224848Y-88050902D01*
X171152502Y-88036511D01*
X171080156Y-88050902D01*
X170715154Y-88050902D01*
X170755600Y-87953257D01*
X170755600Y-87386800D01*
X170603200Y-87234400D01*
X169648400Y-87234400D01*
X169648400Y-87254400D01*
X169343600Y-87254400D01*
X169343600Y-87234400D01*
X167616400Y-87234400D01*
X167616400Y-87254400D01*
X167311600Y-87254400D01*
X167311600Y-87234400D01*
X167291600Y-87234400D01*
X167291600Y-86929600D01*
X167311600Y-86929600D01*
X167311600Y-86909600D01*
X167616400Y-86909600D01*
X167616400Y-86929600D01*
X169343600Y-86929600D01*
X169343600Y-86909600D01*
X169648400Y-86909600D01*
X169648400Y-86929600D01*
X170603200Y-86929600D01*
X170755600Y-86777200D01*
X170755600Y-86210743D01*
X170662794Y-85986689D01*
X170491311Y-85815206D01*
X170278711Y-85727144D01*
X170383854Y-85706230D01*
X170585497Y-85571497D01*
X170720230Y-85369854D01*
X170767542Y-85132000D01*
X170767542Y-83632000D01*
X170720230Y-83394146D01*
X170585497Y-83192503D01*
X170383854Y-83057770D01*
X170198319Y-83020865D01*
X170187977Y-82968873D01*
X170120560Y-82867977D01*
X170025617Y-82725883D01*
X169964281Y-82684900D01*
X169377234Y-82097853D01*
X169441346Y-82085100D01*
X169441348Y-82085100D01*
X169655626Y-82042477D01*
X169898617Y-81880117D01*
X169939602Y-81818778D01*
X170218281Y-81540100D01*
X170279617Y-81499117D01*
X170301121Y-81466934D01*
X170311178Y-81471100D01*
X170712822Y-81471100D01*
X171083892Y-81317397D01*
X171205189Y-81196100D01*
X171414220Y-81196100D01*
X173116401Y-82898283D01*
G36*
X158008900Y-82229178D02*
X158008900Y-82630822D01*
X158162603Y-83001892D01*
X158446608Y-83285897D01*
X158817678Y-83439600D01*
X159219322Y-83439600D01*
X159590392Y-83285897D01*
X159711689Y-83164600D01*
X159849311Y-83164600D01*
X159970608Y-83285897D01*
X160341678Y-83439600D01*
X160537458Y-83439600D01*
X160537458Y-84000000D01*
X160584770Y-84237854D01*
X160649681Y-84335000D01*
X160584770Y-84432146D01*
X160537458Y-84670000D01*
X160537458Y-85270000D01*
X160584770Y-85507854D01*
X160649681Y-85605000D01*
X160584770Y-85702146D01*
X160537458Y-85940000D01*
X160537458Y-86540000D01*
X160584770Y-86777854D01*
X160649681Y-86875000D01*
X160584770Y-86972146D01*
X160537458Y-87210000D01*
X160537458Y-87810000D01*
X160584770Y-88047854D01*
X160649681Y-88145000D01*
X160584770Y-88242146D01*
X160537458Y-88480000D01*
X160537458Y-89080000D01*
X160584282Y-89315400D01*
X160473689Y-89315400D01*
X160352392Y-89194103D01*
X159981322Y-89040400D01*
X159579678Y-89040400D01*
X159208608Y-89194103D01*
X158924603Y-89478108D01*
X158770900Y-89849178D01*
X158770900Y-90250822D01*
X158924603Y-90621892D01*
X159208608Y-90905897D01*
X159579678Y-91059600D01*
X159981322Y-91059600D01*
X160352392Y-90905897D01*
X160473689Y-90784600D01*
X160716231Y-90784600D01*
X160719503Y-90789497D01*
X160921146Y-90924230D01*
X161159000Y-90971542D01*
X162959000Y-90971542D01*
X163196854Y-90924230D01*
X163398497Y-90789497D01*
X163533230Y-90587854D01*
X163580542Y-90350000D01*
X163580542Y-89750000D01*
X163533230Y-89512146D01*
X163468319Y-89415000D01*
X163486627Y-89387600D01*
X163659311Y-89387600D01*
X163780608Y-89508897D01*
X164151678Y-89662600D01*
X164553322Y-89662600D01*
X164924392Y-89508897D01*
X165045689Y-89387600D01*
X165333861Y-89387600D01*
X165468376Y-89477479D01*
X165682654Y-89520102D01*
X165682655Y-89520102D01*
X165755001Y-89534493D01*
X165827348Y-89520102D01*
X168627713Y-89520102D01*
X168550023Y-89636375D01*
X168507430Y-89850503D01*
X168493009Y-89923000D01*
X168507400Y-89995346D01*
X168507400Y-90055311D01*
X168386103Y-90176608D01*
X168236520Y-90537731D01*
X168099392Y-90400603D01*
X167728322Y-90246900D01*
X167326678Y-90246900D01*
X166955608Y-90400603D01*
X166671603Y-90684608D01*
X166517900Y-91055678D01*
X166517900Y-91457322D01*
X166671603Y-91828392D01*
X166698611Y-91855400D01*
X166569689Y-91855400D01*
X166448392Y-91734103D01*
X166077322Y-91580400D01*
X165675678Y-91580400D01*
X165304608Y-91734103D01*
X165020603Y-92018108D01*
X164866900Y-92389178D01*
X164866900Y-92790822D01*
X164900277Y-92871400D01*
X164847282Y-92871400D01*
X163589602Y-91613722D01*
X163548617Y-91552383D01*
X163305626Y-91390023D01*
X163091348Y-91347400D01*
X163091346Y-91347400D01*
X163019000Y-91333009D01*
X162946654Y-91347400D01*
X157608281Y-91347400D01*
X157232422Y-90971542D01*
X157259000Y-90971542D01*
X157496854Y-90924230D01*
X157698497Y-90789497D01*
X157833230Y-90587854D01*
X157880542Y-90350000D01*
X157880542Y-89750000D01*
X157833230Y-89512146D01*
X157768319Y-89415000D01*
X157833230Y-89317854D01*
X157880542Y-89080000D01*
X157880542Y-88480000D01*
X157833230Y-88242146D01*
X157768319Y-88145000D01*
X157833230Y-88047854D01*
X157880542Y-87810000D01*
X157880542Y-87210000D01*
X157833230Y-86972146D01*
X157768319Y-86875000D01*
X157833230Y-86777854D01*
X157880542Y-86540000D01*
X157880542Y-85940000D01*
X157833230Y-85702146D01*
X157768319Y-85605000D01*
X157833230Y-85507854D01*
X157880542Y-85270000D01*
X157880542Y-84670000D01*
X157833230Y-84432146D01*
X157768319Y-84335000D01*
X157833230Y-84237854D01*
X157880542Y-84000000D01*
X157880542Y-83400000D01*
X157833230Y-83162146D01*
X157775443Y-83075662D01*
X157775794Y-83075311D01*
X157868600Y-82851257D01*
X157868600Y-82732400D01*
X157716200Y-82580000D01*
X156511400Y-82580000D01*
X156511400Y-82602400D01*
X156206600Y-82602400D01*
X156206600Y-82580000D01*
X156186600Y-82580000D01*
X156186600Y-82280000D01*
X156206600Y-82280000D01*
X156206600Y-82257600D01*
X156511400Y-82257600D01*
X156511400Y-82280000D01*
X157716200Y-82280000D01*
X157868600Y-82127600D01*
X157868600Y-82085100D01*
X158068579Y-82085100D01*
X158008900Y-82229178D01*
X158008900Y-82229178D01*
G37*
X158008900Y-82229178D02*
X158008900Y-82630822D01*
X158162603Y-83001892D01*
X158446608Y-83285897D01*
X158817678Y-83439600D01*
X159219322Y-83439600D01*
X159590392Y-83285897D01*
X159711689Y-83164600D01*
X159849311Y-83164600D01*
X159970608Y-83285897D01*
X160341678Y-83439600D01*
X160537458Y-83439600D01*
X160537458Y-84000000D01*
X160584770Y-84237854D01*
X160649681Y-84335000D01*
X160584770Y-84432146D01*
X160537458Y-84670000D01*
X160537458Y-85270000D01*
X160584770Y-85507854D01*
X160649681Y-85605000D01*
X160584770Y-85702146D01*
X160537458Y-85940000D01*
X160537458Y-86540000D01*
X160584770Y-86777854D01*
X160649681Y-86875000D01*
X160584770Y-86972146D01*
X160537458Y-87210000D01*
X160537458Y-87810000D01*
X160584770Y-88047854D01*
X160649681Y-88145000D01*
X160584770Y-88242146D01*
X160537458Y-88480000D01*
X160537458Y-89080000D01*
X160584282Y-89315400D01*
X160473689Y-89315400D01*
X160352392Y-89194103D01*
X159981322Y-89040400D01*
X159579678Y-89040400D01*
X159208608Y-89194103D01*
X158924603Y-89478108D01*
X158770900Y-89849178D01*
X158770900Y-90250822D01*
X158924603Y-90621892D01*
X159208608Y-90905897D01*
X159579678Y-91059600D01*
X159981322Y-91059600D01*
X160352392Y-90905897D01*
X160473689Y-90784600D01*
X160716231Y-90784600D01*
X160719503Y-90789497D01*
X160921146Y-90924230D01*
X161159000Y-90971542D01*
X162959000Y-90971542D01*
X163196854Y-90924230D01*
X163398497Y-90789497D01*
X163533230Y-90587854D01*
X163580542Y-90350000D01*
X163580542Y-89750000D01*
X163533230Y-89512146D01*
X163468319Y-89415000D01*
X163486627Y-89387600D01*
X163659311Y-89387600D01*
X163780608Y-89508897D01*
X164151678Y-89662600D01*
X164553322Y-89662600D01*
X164924392Y-89508897D01*
X165045689Y-89387600D01*
X165333861Y-89387600D01*
X165468376Y-89477479D01*
X165682654Y-89520102D01*
X165682655Y-89520102D01*
X165755001Y-89534493D01*
X165827348Y-89520102D01*
X168627713Y-89520102D01*
X168550023Y-89636375D01*
X168507430Y-89850503D01*
X168493009Y-89923000D01*
X168507400Y-89995346D01*
X168507400Y-90055311D01*
X168386103Y-90176608D01*
X168236520Y-90537731D01*
X168099392Y-90400603D01*
X167728322Y-90246900D01*
X167326678Y-90246900D01*
X166955608Y-90400603D01*
X166671603Y-90684608D01*
X166517900Y-91055678D01*
X166517900Y-91457322D01*
X166671603Y-91828392D01*
X166698611Y-91855400D01*
X166569689Y-91855400D01*
X166448392Y-91734103D01*
X166077322Y-91580400D01*
X165675678Y-91580400D01*
X165304608Y-91734103D01*
X165020603Y-92018108D01*
X164866900Y-92389178D01*
X164866900Y-92790822D01*
X164900277Y-92871400D01*
X164847282Y-92871400D01*
X163589602Y-91613722D01*
X163548617Y-91552383D01*
X163305626Y-91390023D01*
X163091348Y-91347400D01*
X163091346Y-91347400D01*
X163019000Y-91333009D01*
X162946654Y-91347400D01*
X157608281Y-91347400D01*
X157232422Y-90971542D01*
X157259000Y-90971542D01*
X157496854Y-90924230D01*
X157698497Y-90789497D01*
X157833230Y-90587854D01*
X157880542Y-90350000D01*
X157880542Y-89750000D01*
X157833230Y-89512146D01*
X157768319Y-89415000D01*
X157833230Y-89317854D01*
X157880542Y-89080000D01*
X157880542Y-88480000D01*
X157833230Y-88242146D01*
X157768319Y-88145000D01*
X157833230Y-88047854D01*
X157880542Y-87810000D01*
X157880542Y-87210000D01*
X157833230Y-86972146D01*
X157768319Y-86875000D01*
X157833230Y-86777854D01*
X157880542Y-86540000D01*
X157880542Y-85940000D01*
X157833230Y-85702146D01*
X157768319Y-85605000D01*
X157833230Y-85507854D01*
X157880542Y-85270000D01*
X157880542Y-84670000D01*
X157833230Y-84432146D01*
X157768319Y-84335000D01*
X157833230Y-84237854D01*
X157880542Y-84000000D01*
X157880542Y-83400000D01*
X157833230Y-83162146D01*
X157775443Y-83075662D01*
X157775794Y-83075311D01*
X157868600Y-82851257D01*
X157868600Y-82732400D01*
X157716200Y-82580000D01*
X156511400Y-82580000D01*
X156511400Y-82602400D01*
X156206600Y-82602400D01*
X156206600Y-82580000D01*
X156186600Y-82580000D01*
X156186600Y-82280000D01*
X156206600Y-82280000D01*
X156206600Y-82257600D01*
X156511400Y-82257600D01*
X156511400Y-82280000D01*
X157716200Y-82280000D01*
X157868600Y-82127600D01*
X157868600Y-82085100D01*
X158068579Y-82085100D01*
X158008900Y-82229178D01*
G36*
X165304608Y-87095897D02*
X165675678Y-87249600D01*
X166077322Y-87249600D01*
X166204400Y-87196962D01*
X166204400Y-87234402D01*
X166356798Y-87234402D01*
X166204400Y-87386800D01*
X166204400Y-87953257D01*
X166244846Y-88050902D01*
X166043641Y-88050902D01*
X165909126Y-87961023D01*
X165694848Y-87918400D01*
X165694846Y-87918400D01*
X165622500Y-87904009D01*
X165550154Y-87918400D01*
X165045689Y-87918400D01*
X164924392Y-87797103D01*
X164600100Y-87662776D01*
X164600100Y-87309178D01*
X164461513Y-86974600D01*
X165183311Y-86974600D01*
X165304608Y-87095897D01*
X165304608Y-87095897D01*
G37*
X165304608Y-87095897D02*
X165675678Y-87249600D01*
X166077322Y-87249600D01*
X166204400Y-87196962D01*
X166204400Y-87234402D01*
X166356798Y-87234402D01*
X166204400Y-87386800D01*
X166204400Y-87953257D01*
X166244846Y-88050902D01*
X166043641Y-88050902D01*
X165909126Y-87961023D01*
X165694848Y-87918400D01*
X165694846Y-87918400D01*
X165622500Y-87904009D01*
X165550154Y-87918400D01*
X165045689Y-87918400D01*
X164924392Y-87797103D01*
X164600100Y-87662776D01*
X164600100Y-87309178D01*
X164461513Y-86974600D01*
X165183311Y-86974600D01*
X165304608Y-87095897D01*
G36*
X159339503Y-79064497D02*
X159541146Y-79199230D01*
X159779000Y-79246542D01*
X161339000Y-79246542D01*
X161576854Y-79199230D01*
X161778497Y-79064497D01*
X161796803Y-79037100D01*
X161881311Y-79037100D01*
X162002608Y-79158397D01*
X162373678Y-79312100D01*
X162775322Y-79312100D01*
X163146392Y-79158397D01*
X163260400Y-79044389D01*
X163260400Y-79045200D01*
X163412800Y-79197600D01*
X164517600Y-79197600D01*
X164517600Y-79177600D01*
X164822400Y-79177600D01*
X164822400Y-79197600D01*
X164842400Y-79197600D01*
X164842400Y-79502400D01*
X164822400Y-79502400D01*
X164822400Y-79522400D01*
X164517600Y-79522400D01*
X164517600Y-79502400D01*
X163412800Y-79502400D01*
X163260400Y-79654800D01*
X163260400Y-79846611D01*
X163146392Y-79732603D01*
X162775322Y-79578900D01*
X162373678Y-79578900D01*
X162002608Y-79732603D01*
X161718603Y-80016608D01*
X161564900Y-80387678D01*
X161564900Y-80615900D01*
X160790100Y-80615900D01*
X160790100Y-80387678D01*
X160636397Y-80016608D01*
X160352392Y-79732603D01*
X159981322Y-79578900D01*
X159579678Y-79578900D01*
X159208608Y-79732603D01*
X159087311Y-79853900D01*
X158958344Y-79853900D01*
X158885998Y-79839509D01*
X158813651Y-79853900D01*
X158813650Y-79853900D01*
X158599372Y-79896523D01*
X158356381Y-80058883D01*
X158315396Y-80120222D01*
X158269720Y-80165898D01*
X156487391Y-80165898D01*
X156762897Y-79890392D01*
X156916600Y-79519322D01*
X156916600Y-79217558D01*
X156957743Y-79234600D01*
X157554200Y-79234600D01*
X157706600Y-79082200D01*
X157706600Y-79013191D01*
X158011400Y-79005571D01*
X158011400Y-79082200D01*
X158163800Y-79234600D01*
X158760257Y-79234600D01*
X158984311Y-79141794D01*
X159148973Y-78977132D01*
X159278957Y-78973883D01*
X159339503Y-79064497D01*
X159339503Y-79064497D01*
G37*
X159339503Y-79064497D02*
X159541146Y-79199230D01*
X159779000Y-79246542D01*
X161339000Y-79246542D01*
X161576854Y-79199230D01*
X161778497Y-79064497D01*
X161796803Y-79037100D01*
X161881311Y-79037100D01*
X162002608Y-79158397D01*
X162373678Y-79312100D01*
X162775322Y-79312100D01*
X163146392Y-79158397D01*
X163260400Y-79044389D01*
X163260400Y-79045200D01*
X163412800Y-79197600D01*
X164517600Y-79197600D01*
X164517600Y-79177600D01*
X164822400Y-79177600D01*
X164822400Y-79197600D01*
X164842400Y-79197600D01*
X164842400Y-79502400D01*
X164822400Y-79502400D01*
X164822400Y-79522400D01*
X164517600Y-79522400D01*
X164517600Y-79502400D01*
X163412800Y-79502400D01*
X163260400Y-79654800D01*
X163260400Y-79846611D01*
X163146392Y-79732603D01*
X162775322Y-79578900D01*
X162373678Y-79578900D01*
X162002608Y-79732603D01*
X161718603Y-80016608D01*
X161564900Y-80387678D01*
X161564900Y-80615900D01*
X160790100Y-80615900D01*
X160790100Y-80387678D01*
X160636397Y-80016608D01*
X160352392Y-79732603D01*
X159981322Y-79578900D01*
X159579678Y-79578900D01*
X159208608Y-79732603D01*
X159087311Y-79853900D01*
X158958344Y-79853900D01*
X158885998Y-79839509D01*
X158813651Y-79853900D01*
X158813650Y-79853900D01*
X158599372Y-79896523D01*
X158356381Y-80058883D01*
X158315396Y-80120222D01*
X158269720Y-80165898D01*
X156487391Y-80165898D01*
X156762897Y-79890392D01*
X156916600Y-79519322D01*
X156916600Y-79217558D01*
X156957743Y-79234600D01*
X157554200Y-79234600D01*
X157706600Y-79082200D01*
X157706600Y-79013191D01*
X158011400Y-79005571D01*
X158011400Y-79082200D01*
X158163800Y-79234600D01*
X158760257Y-79234600D01*
X158984311Y-79141794D01*
X159148973Y-78977132D01*
X159278957Y-78973883D01*
X159339503Y-79064497D01*
G36*
X153100400Y-74228743D02*
X153100400Y-74868295D01*
X152965311Y-74733206D01*
X152741257Y-74640400D01*
X152274800Y-74640400D01*
X152122400Y-74792800D01*
X152122400Y-75847600D01*
X152142400Y-75847600D01*
X152142400Y-76152400D01*
X152122400Y-76152400D01*
X152122400Y-76172400D01*
X151817600Y-76172400D01*
X151817600Y-76152400D01*
X151797600Y-76152400D01*
X151797600Y-75847600D01*
X151817600Y-75847600D01*
X151817600Y-74792800D01*
X151665200Y-74640400D01*
X151198743Y-74640400D01*
X150974689Y-74733206D01*
X150803206Y-74904689D01*
X150710400Y-75128743D01*
X150710400Y-75548574D01*
X150687126Y-75533023D01*
X150547618Y-75505273D01*
X150504230Y-75287146D01*
X150369497Y-75085503D01*
X150167854Y-74950770D01*
X149930000Y-74903458D01*
X148930000Y-74903458D01*
X148692146Y-74950770D01*
X148490503Y-75085503D01*
X148355770Y-75287146D01*
X148308458Y-75525000D01*
X148308458Y-76925000D01*
X148355770Y-77162854D01*
X148480816Y-77350000D01*
X148355770Y-77537146D01*
X148308458Y-77775000D01*
X148308458Y-79175000D01*
X148355770Y-79412854D01*
X148450086Y-79554009D01*
X148420400Y-79625678D01*
X148420400Y-80027322D01*
X148477800Y-80165898D01*
X148204778Y-80165898D01*
X148159102Y-80120222D01*
X148159098Y-80120216D01*
X147723921Y-79685040D01*
X147829497Y-79614497D01*
X147964230Y-79412854D01*
X148011542Y-79175000D01*
X148011542Y-77775000D01*
X147964230Y-77537146D01*
X147839184Y-77350000D01*
X147964230Y-77162854D01*
X148011542Y-76925000D01*
X148011542Y-75525000D01*
X147964230Y-75287146D01*
X147829497Y-75085503D01*
X147627854Y-74950770D01*
X147390000Y-74903458D01*
X146390000Y-74903458D01*
X146152146Y-74950770D01*
X145950503Y-75085503D01*
X145815770Y-75287146D01*
X145774998Y-75492121D01*
X145609600Y-75525021D01*
X145609600Y-75128743D01*
X145516794Y-74904689D01*
X145345311Y-74733206D01*
X145121257Y-74640400D01*
X144654800Y-74640400D01*
X144502400Y-74792800D01*
X144502400Y-75847600D01*
X144522400Y-75847600D01*
X144522400Y-76152400D01*
X144502400Y-76152400D01*
X144502400Y-76172400D01*
X144197600Y-76172400D01*
X144197600Y-76152400D01*
X143242800Y-76152400D01*
X143090400Y-76304800D01*
X143090400Y-76871257D01*
X143183206Y-77095311D01*
X143354689Y-77266794D01*
X143567289Y-77354856D01*
X143462146Y-77375770D01*
X143260503Y-77510503D01*
X143125770Y-77712146D01*
X143080000Y-77942248D01*
X143034230Y-77712146D01*
X142899497Y-77510503D01*
X142697854Y-77375770D01*
X142568299Y-77350000D01*
X142697854Y-77324230D01*
X142899497Y-77189497D01*
X143034230Y-76987854D01*
X143081542Y-76750000D01*
X143081542Y-75756100D01*
X143151300Y-75756100D01*
X143242800Y-75847600D01*
X144197600Y-75847600D01*
X144197600Y-74792800D01*
X144089600Y-74684800D01*
X144089600Y-74545678D01*
X143940036Y-74184600D01*
X153118685Y-74184600D01*
X153100400Y-74228743D01*
X153100400Y-74228743D01*
G37*
X153100400Y-74228743D02*
X153100400Y-74868295D01*
X152965311Y-74733206D01*
X152741257Y-74640400D01*
X152274800Y-74640400D01*
X152122400Y-74792800D01*
X152122400Y-75847600D01*
X152142400Y-75847600D01*
X152142400Y-76152400D01*
X152122400Y-76152400D01*
X152122400Y-76172400D01*
X151817600Y-76172400D01*
X151817600Y-76152400D01*
X151797600Y-76152400D01*
X151797600Y-75847600D01*
X151817600Y-75847600D01*
X151817600Y-74792800D01*
X151665200Y-74640400D01*
X151198743Y-74640400D01*
X150974689Y-74733206D01*
X150803206Y-74904689D01*
X150710400Y-75128743D01*
X150710400Y-75548574D01*
X150687126Y-75533023D01*
X150547618Y-75505273D01*
X150504230Y-75287146D01*
X150369497Y-75085503D01*
X150167854Y-74950770D01*
X149930000Y-74903458D01*
X148930000Y-74903458D01*
X148692146Y-74950770D01*
X148490503Y-75085503D01*
X148355770Y-75287146D01*
X148308458Y-75525000D01*
X148308458Y-76925000D01*
X148355770Y-77162854D01*
X148480816Y-77350000D01*
X148355770Y-77537146D01*
X148308458Y-77775000D01*
X148308458Y-79175000D01*
X148355770Y-79412854D01*
X148450086Y-79554009D01*
X148420400Y-79625678D01*
X148420400Y-80027322D01*
X148477800Y-80165898D01*
X148204778Y-80165898D01*
X148159102Y-80120222D01*
X148159098Y-80120216D01*
X147723921Y-79685040D01*
X147829497Y-79614497D01*
X147964230Y-79412854D01*
X148011542Y-79175000D01*
X148011542Y-77775000D01*
X147964230Y-77537146D01*
X147839184Y-77350000D01*
X147964230Y-77162854D01*
X148011542Y-76925000D01*
X148011542Y-75525000D01*
X147964230Y-75287146D01*
X147829497Y-75085503D01*
X147627854Y-74950770D01*
X147390000Y-74903458D01*
X146390000Y-74903458D01*
X146152146Y-74950770D01*
X145950503Y-75085503D01*
X145815770Y-75287146D01*
X145774998Y-75492121D01*
X145609600Y-75525021D01*
X145609600Y-75128743D01*
X145516794Y-74904689D01*
X145345311Y-74733206D01*
X145121257Y-74640400D01*
X144654800Y-74640400D01*
X144502400Y-74792800D01*
X144502400Y-75847600D01*
X144522400Y-75847600D01*
X144522400Y-76152400D01*
X144502400Y-76152400D01*
X144502400Y-76172400D01*
X144197600Y-76172400D01*
X144197600Y-76152400D01*
X143242800Y-76152400D01*
X143090400Y-76304800D01*
X143090400Y-76871257D01*
X143183206Y-77095311D01*
X143354689Y-77266794D01*
X143567289Y-77354856D01*
X143462146Y-77375770D01*
X143260503Y-77510503D01*
X143125770Y-77712146D01*
X143080000Y-77942248D01*
X143034230Y-77712146D01*
X142899497Y-77510503D01*
X142697854Y-77375770D01*
X142568299Y-77350000D01*
X142697854Y-77324230D01*
X142899497Y-77189497D01*
X143034230Y-76987854D01*
X143081542Y-76750000D01*
X143081542Y-75756100D01*
X143151300Y-75756100D01*
X143242800Y-75847600D01*
X144197600Y-75847600D01*
X144197600Y-74792800D01*
X144089600Y-74684800D01*
X144089600Y-74545678D01*
X143940036Y-74184600D01*
X153118685Y-74184600D01*
X153100400Y-74228743D01*
G36*
X163248458Y-74350000D02*
X163248458Y-74615400D01*
X162474189Y-74615400D01*
X162384392Y-74525603D01*
X162013322Y-74371900D01*
X161611678Y-74371900D01*
X161240608Y-74525603D01*
X160956603Y-74809608D01*
X160802900Y-75180678D01*
X160802900Y-75453458D01*
X159779000Y-75453458D01*
X159541146Y-75500770D01*
X159339503Y-75635503D01*
X159217079Y-75818724D01*
X159201058Y-75818929D01*
X159078497Y-75635503D01*
X158876854Y-75500770D01*
X158639000Y-75453458D01*
X157079000Y-75453458D01*
X156841146Y-75500770D01*
X156639503Y-75635503D01*
X156504770Y-75837146D01*
X156457458Y-76075000D01*
X156457458Y-76725000D01*
X156504770Y-76962854D01*
X156567400Y-77056587D01*
X156567400Y-77624495D01*
X156562206Y-77629689D01*
X156469400Y-77853743D01*
X156469400Y-77995200D01*
X156567400Y-78093200D01*
X156567400Y-78506800D01*
X156545245Y-78528956D01*
X156478892Y-78462603D01*
X156107822Y-78308900D01*
X155923367Y-78308900D01*
X155884230Y-78112146D01*
X155749497Y-77910503D01*
X155547854Y-77775770D01*
X155310000Y-77728458D01*
X153710000Y-77728458D01*
X153472146Y-77775770D01*
X153270503Y-77910503D01*
X153241542Y-77953846D01*
X153241542Y-77950000D01*
X153194230Y-77712146D01*
X153059497Y-77510503D01*
X152857854Y-77375770D01*
X152752711Y-77354856D01*
X152965311Y-77266794D01*
X153136794Y-77095311D01*
X153229600Y-76871257D01*
X153229600Y-76731705D01*
X153364689Y-76866794D01*
X153588743Y-76959600D01*
X154205200Y-76959600D01*
X154357600Y-76807200D01*
X154357600Y-75502400D01*
X154662400Y-75502400D01*
X154662400Y-76807200D01*
X154814800Y-76959600D01*
X155431257Y-76959600D01*
X155655311Y-76866794D01*
X155826794Y-76695311D01*
X155919600Y-76471257D01*
X155919600Y-75654800D01*
X155767200Y-75502400D01*
X154662400Y-75502400D01*
X154357600Y-75502400D01*
X154337600Y-75502400D01*
X154337600Y-75197600D01*
X154357600Y-75197600D01*
X154357600Y-75177600D01*
X154662400Y-75177600D01*
X154662400Y-75197600D01*
X155767200Y-75197600D01*
X155919600Y-75045200D01*
X155919600Y-74228743D01*
X155901315Y-74184600D01*
X163281358Y-74184600D01*
X163248458Y-74350000D01*
X163248458Y-74350000D01*
G37*
X163248458Y-74350000D02*
X163248458Y-74615400D01*
X162474189Y-74615400D01*
X162384392Y-74525603D01*
X162013322Y-74371900D01*
X161611678Y-74371900D01*
X161240608Y-74525603D01*
X160956603Y-74809608D01*
X160802900Y-75180678D01*
X160802900Y-75453458D01*
X159779000Y-75453458D01*
X159541146Y-75500770D01*
X159339503Y-75635503D01*
X159217079Y-75818724D01*
X159201058Y-75818929D01*
X159078497Y-75635503D01*
X158876854Y-75500770D01*
X158639000Y-75453458D01*
X157079000Y-75453458D01*
X156841146Y-75500770D01*
X156639503Y-75635503D01*
X156504770Y-75837146D01*
X156457458Y-76075000D01*
X156457458Y-76725000D01*
X156504770Y-76962854D01*
X156567400Y-77056587D01*
X156567400Y-77624495D01*
X156562206Y-77629689D01*
X156469400Y-77853743D01*
X156469400Y-77995200D01*
X156567400Y-78093200D01*
X156567400Y-78506800D01*
X156545245Y-78528956D01*
X156478892Y-78462603D01*
X156107822Y-78308900D01*
X155923367Y-78308900D01*
X155884230Y-78112146D01*
X155749497Y-77910503D01*
X155547854Y-77775770D01*
X155310000Y-77728458D01*
X153710000Y-77728458D01*
X153472146Y-77775770D01*
X153270503Y-77910503D01*
X153241542Y-77953846D01*
X153241542Y-77950000D01*
X153194230Y-77712146D01*
X153059497Y-77510503D01*
X152857854Y-77375770D01*
X152752711Y-77354856D01*
X152965311Y-77266794D01*
X153136794Y-77095311D01*
X153229600Y-76871257D01*
X153229600Y-76731705D01*
X153364689Y-76866794D01*
X153588743Y-76959600D01*
X154205200Y-76959600D01*
X154357600Y-76807200D01*
X154357600Y-75502400D01*
X154662400Y-75502400D01*
X154662400Y-76807200D01*
X154814800Y-76959600D01*
X155431257Y-76959600D01*
X155655311Y-76866794D01*
X155826794Y-76695311D01*
X155919600Y-76471257D01*
X155919600Y-75654800D01*
X155767200Y-75502400D01*
X154662400Y-75502400D01*
X154357600Y-75502400D01*
X154337600Y-75502400D01*
X154337600Y-75197600D01*
X154357600Y-75197600D01*
X154357600Y-75177600D01*
X154662400Y-75177600D01*
X154662400Y-75197600D01*
X155767200Y-75197600D01*
X155919600Y-75045200D01*
X155919600Y-74228743D01*
X155901315Y-74184600D01*
X163281358Y-74184600D01*
X163248458Y-74350000D01*
G36*
X182315400Y-78355336D02*
X182130000Y-78318458D01*
X181914600Y-78318458D01*
X181914600Y-78311346D01*
X181928991Y-78239000D01*
X181910810Y-78147600D01*
X181871977Y-77952374D01*
X181709617Y-77709383D01*
X181648281Y-77668400D01*
X180861602Y-76881722D01*
X180820617Y-76820383D01*
X180577626Y-76658023D01*
X180363348Y-76615400D01*
X180363346Y-76615400D01*
X180291000Y-76601009D01*
X180218654Y-76615400D01*
X171981346Y-76615400D01*
X171908999Y-76601009D01*
X171836653Y-76615400D01*
X171836652Y-76615400D01*
X171622374Y-76658023D01*
X171379383Y-76820383D01*
X171338402Y-76881717D01*
X170761639Y-77458480D01*
X170637854Y-77375770D01*
X170532711Y-77354856D01*
X170745311Y-77266794D01*
X170916794Y-77095311D01*
X171009600Y-76871257D01*
X171009600Y-76304800D01*
X170857200Y-76152400D01*
X169902400Y-76152400D01*
X169902400Y-76172400D01*
X169597600Y-76172400D01*
X169597600Y-76152400D01*
X169577600Y-76152400D01*
X169577600Y-75847600D01*
X169597600Y-75847600D01*
X169597600Y-74792800D01*
X169902400Y-74792800D01*
X169902400Y-75847600D01*
X170857200Y-75847600D01*
X171009600Y-75695200D01*
X171009600Y-75128743D01*
X170916794Y-74904689D01*
X170745311Y-74733206D01*
X170521257Y-74640400D01*
X170054800Y-74640400D01*
X169902400Y-74792800D01*
X169597600Y-74792800D01*
X169445200Y-74640400D01*
X168978743Y-74640400D01*
X168754689Y-74733206D01*
X168631542Y-74856353D01*
X168631542Y-74350000D01*
X168598642Y-74184600D01*
X182315400Y-74184600D01*
X182315400Y-78355336D01*
X182315400Y-78355336D01*
G37*
X182315400Y-78355336D02*
X182130000Y-78318458D01*
X181914600Y-78318458D01*
X181914600Y-78311346D01*
X181928991Y-78239000D01*
X181910810Y-78147600D01*
X181871977Y-77952374D01*
X181709617Y-77709383D01*
X181648281Y-77668400D01*
X180861602Y-76881722D01*
X180820617Y-76820383D01*
X180577626Y-76658023D01*
X180363348Y-76615400D01*
X180363346Y-76615400D01*
X180291000Y-76601009D01*
X180218654Y-76615400D01*
X171981346Y-76615400D01*
X171908999Y-76601009D01*
X171836653Y-76615400D01*
X171836652Y-76615400D01*
X171622374Y-76658023D01*
X171379383Y-76820383D01*
X171338402Y-76881717D01*
X170761639Y-77458480D01*
X170637854Y-77375770D01*
X170532711Y-77354856D01*
X170745311Y-77266794D01*
X170916794Y-77095311D01*
X171009600Y-76871257D01*
X171009600Y-76304800D01*
X170857200Y-76152400D01*
X169902400Y-76152400D01*
X169902400Y-76172400D01*
X169597600Y-76172400D01*
X169597600Y-76152400D01*
X169577600Y-76152400D01*
X169577600Y-75847600D01*
X169597600Y-75847600D01*
X169597600Y-74792800D01*
X169902400Y-74792800D01*
X169902400Y-75847600D01*
X170857200Y-75847600D01*
X171009600Y-75695200D01*
X171009600Y-75128743D01*
X170916794Y-74904689D01*
X170745311Y-74733206D01*
X170521257Y-74640400D01*
X170054800Y-74640400D01*
X169902400Y-74792800D01*
X169597600Y-74792800D01*
X169445200Y-74640400D01*
X168978743Y-74640400D01*
X168754689Y-74733206D01*
X168631542Y-74856353D01*
X168631542Y-74350000D01*
X168598642Y-74184600D01*
X182315400Y-74184600D01*
X182315400Y-78355336D01*
G04 #@! TD*
M02*
