G04 #@! TF.GenerationSoftware,KiCad,Pcbnew,(5.0.2)-1*
G04 #@! TF.CreationDate,2019-01-05T19:06:30+01:00*
G04 #@! TF.ProjectId,DrumMetter,4472756d-4d65-4747-9465-722e6b696361,01*
G04 #@! TF.SameCoordinates,Original*
G04 #@! TF.FileFunction,Legend,Top*
G04 #@! TF.FilePolarity,Positive*
%FSLAX46Y46*%
G04 Gerber Fmt 4.6, Leading zero omitted, Abs format (unit mm)*
G04 Created by KiCad (PCBNEW (5.0.2)-1) date 05.01.2019 19:06:30*
%MOMM*%
%LPD*%
G01*
G04 APERTURE LIST*
%ADD10C,0.150000*%
%ADD11C,0.120000*%
G04 APERTURE END LIST*
D10*
G04 #@! TO.C,U2*
X172820000Y-94390000D02*
X173320000Y-94890000D01*
X172820000Y-94390000D02*
X172820000Y-94090000D01*
X172020000Y-94390000D02*
X172820000Y-94390000D01*
X169220000Y-94390000D02*
X170020000Y-94390000D01*
X169220000Y-94090000D02*
X169220000Y-94390000D01*
X172820000Y-91090000D02*
X172820000Y-90790000D01*
X172820000Y-90790000D02*
X172020000Y-90790000D01*
X169220000Y-90790000D02*
X170020000Y-90790000D01*
X169220000Y-91090000D02*
X169220000Y-90790000D01*
G04 #@! TO.C,Sw2*
X150890000Y-93240000D02*
X151390000Y-93740000D01*
X150890000Y-92240000D02*
X150890000Y-93240000D01*
X150890000Y-93240000D02*
X142890000Y-93240000D01*
X142890000Y-93240000D02*
X142890000Y-91740000D01*
D11*
G04 #@! TO.C,R1*
X170630000Y-76750000D02*
X170630000Y-77950000D01*
X168870000Y-77950000D02*
X168870000Y-76750000D01*
G04 #@! TO.C,R2*
X145230000Y-76750000D02*
X145230000Y-77950000D01*
X143470000Y-77950000D02*
X143470000Y-76750000D01*
G04 #@! TO.C,R3*
X152850000Y-76750000D02*
X152850000Y-77950000D01*
X151090000Y-77950000D02*
X151090000Y-76750000D01*
G04 #@! TO.C,R4*
X168344000Y-85132000D02*
X168344000Y-86332000D01*
X166584000Y-86332000D02*
X166584000Y-85132000D01*
G04 #@! TO.C,R5*
X168616000Y-86332000D02*
X168616000Y-85132000D01*
X170376000Y-85132000D02*
X170376000Y-86332000D01*
G04 #@! TO.C,R6*
X140930000Y-77950000D02*
X140930000Y-76750000D01*
X142690000Y-76750000D02*
X142690000Y-77950000D01*
G04 #@! TO.C,U1*
X158309000Y-78960000D02*
X160759000Y-78960000D01*
X160109000Y-75740000D02*
X158309000Y-75740000D01*
D10*
G04 #@! TO.C,U3*
X157134000Y-90690000D02*
X161284000Y-90690000D01*
X157134000Y-90690000D02*
X157134000Y-90575000D01*
X161284000Y-90690000D02*
X161284000Y-90575000D01*
X161309000Y-81640000D02*
X157109000Y-81640000D01*
X161309000Y-81840000D02*
X161309000Y-81640000D01*
X157109000Y-81640000D02*
X156609000Y-81040000D01*
X157109000Y-81640000D02*
X155509000Y-81640000D01*
G04 #@! TO.C,P1*
X145990000Y-79350000D02*
X145990000Y-77000000D01*
X147790000Y-79350000D02*
X147790000Y-77050000D01*
X147790000Y-77450000D02*
X147790000Y-77400000D01*
X145990000Y-79350000D02*
X147790000Y-79350000D01*
G04 #@! TO.C,P2*
X148530000Y-79350000D02*
X148530000Y-77000000D01*
X150330000Y-79350000D02*
X150330000Y-77050000D01*
X150330000Y-77450000D02*
X150330000Y-77400000D01*
X148530000Y-79350000D02*
X150330000Y-79350000D01*
D11*
G04 #@! TO.C,C4*
X165690000Y-78350000D02*
X165690000Y-76350000D01*
X163650000Y-76350000D02*
X163650000Y-78350000D01*
G04 #@! TO.C,C1*
X168230000Y-78350000D02*
X168230000Y-76350000D01*
X166190000Y-76350000D02*
X166190000Y-78350000D01*
G04 #@! TO.C,C2*
X153490000Y-76350000D02*
X153490000Y-78350000D01*
X155530000Y-78350000D02*
X155530000Y-76350000D01*
G04 #@! TO.C,C3*
X160336000Y-92332000D02*
X158336000Y-92332000D01*
X158336000Y-94372000D02*
X160336000Y-94372000D01*
G04 #@! TO.C,U2*
D10*
X167737760Y-89202140D02*
X167737760Y-90012020D01*
X167785400Y-90107300D01*
X167833040Y-90154940D01*
X167928320Y-90202580D01*
X168118880Y-90202580D01*
X168214160Y-90154940D01*
X168261800Y-90107300D01*
X168309440Y-90012020D01*
X168309440Y-89202140D01*
X168738200Y-89297420D02*
X168785840Y-89249780D01*
X168881120Y-89202140D01*
X169119320Y-89202140D01*
X169214600Y-89249780D01*
X169262240Y-89297420D01*
X169309880Y-89392700D01*
X169309880Y-89487980D01*
X169262240Y-89630900D01*
X168690560Y-90202580D01*
X169309880Y-90202580D01*
G04 #@! TO.C,Sw2*
X151464285Y-92904761D02*
X151607142Y-92952380D01*
X151845238Y-92952380D01*
X151940476Y-92904761D01*
X151988095Y-92857142D01*
X152035714Y-92761904D01*
X152035714Y-92666666D01*
X151988095Y-92571428D01*
X151940476Y-92523809D01*
X151845238Y-92476190D01*
X151654761Y-92428571D01*
X151559523Y-92380952D01*
X151511904Y-92333333D01*
X151464285Y-92238095D01*
X151464285Y-92142857D01*
X151511904Y-92047619D01*
X151559523Y-92000000D01*
X151654761Y-91952380D01*
X151892857Y-91952380D01*
X152035714Y-92000000D01*
X152369047Y-92285714D02*
X152559523Y-92952380D01*
X152750000Y-92476190D01*
X152940476Y-92952380D01*
X153130952Y-92285714D01*
X153464285Y-92047619D02*
X153511904Y-92000000D01*
X153607142Y-91952380D01*
X153845238Y-91952380D01*
X153940476Y-92000000D01*
X153988095Y-92047619D01*
X154035714Y-92142857D01*
X154035714Y-92238095D01*
X153988095Y-92380952D01*
X153416666Y-92952380D01*
X154035714Y-92952380D01*
G04 #@! TO.C,R1*
X171583333Y-77952380D02*
X171250000Y-77476190D01*
X171011904Y-77952380D02*
X171011904Y-76952380D01*
X171392857Y-76952380D01*
X171488095Y-77000000D01*
X171535714Y-77047619D01*
X171583333Y-77142857D01*
X171583333Y-77285714D01*
X171535714Y-77380952D01*
X171488095Y-77428571D01*
X171392857Y-77476190D01*
X171011904Y-77476190D01*
X172535714Y-77952380D02*
X171964285Y-77952380D01*
X172250000Y-77952380D02*
X172250000Y-76952380D01*
X172154761Y-77095238D01*
X172059523Y-77190476D01*
X171964285Y-77238095D01*
G04 #@! TO.C,R2*
X144333333Y-80702380D02*
X144000000Y-80226190D01*
X143761904Y-80702380D02*
X143761904Y-79702380D01*
X144142857Y-79702380D01*
X144238095Y-79750000D01*
X144285714Y-79797619D01*
X144333333Y-79892857D01*
X144333333Y-80035714D01*
X144285714Y-80130952D01*
X144238095Y-80178571D01*
X144142857Y-80226190D01*
X143761904Y-80226190D01*
X144714285Y-79797619D02*
X144761904Y-79750000D01*
X144857142Y-79702380D01*
X145095238Y-79702380D01*
X145190476Y-79750000D01*
X145238095Y-79797619D01*
X145285714Y-79892857D01*
X145285714Y-79988095D01*
X145238095Y-80130952D01*
X144666666Y-80702380D01*
X145285714Y-80702380D01*
G04 #@! TO.C,R3*
X151833333Y-80702380D02*
X151500000Y-80226190D01*
X151261904Y-80702380D02*
X151261904Y-79702380D01*
X151642857Y-79702380D01*
X151738095Y-79750000D01*
X151785714Y-79797619D01*
X151833333Y-79892857D01*
X151833333Y-80035714D01*
X151785714Y-80130952D01*
X151738095Y-80178571D01*
X151642857Y-80226190D01*
X151261904Y-80226190D01*
X152166666Y-79702380D02*
X152785714Y-79702380D01*
X152452380Y-80083333D01*
X152595238Y-80083333D01*
X152690476Y-80130952D01*
X152738095Y-80178571D01*
X152785714Y-80273809D01*
X152785714Y-80511904D01*
X152738095Y-80607142D01*
X152690476Y-80654761D01*
X152595238Y-80702380D01*
X152309523Y-80702380D01*
X152214285Y-80654761D01*
X152166666Y-80607142D01*
G04 #@! TO.C,R4*
X169333333Y-83202380D02*
X169000000Y-82726190D01*
X168761904Y-83202380D02*
X168761904Y-82202380D01*
X169142857Y-82202380D01*
X169238095Y-82250000D01*
X169285714Y-82297619D01*
X169333333Y-82392857D01*
X169333333Y-82535714D01*
X169285714Y-82630952D01*
X169238095Y-82678571D01*
X169142857Y-82726190D01*
X168761904Y-82726190D01*
X170190476Y-82535714D02*
X170190476Y-83202380D01*
X169952380Y-82154761D02*
X169714285Y-82869047D01*
X170333333Y-82869047D01*
G04 #@! TO.C,R5*
X167333333Y-83202380D02*
X167000000Y-82726190D01*
X166761904Y-83202380D02*
X166761904Y-82202380D01*
X167142857Y-82202380D01*
X167238095Y-82250000D01*
X167285714Y-82297619D01*
X167333333Y-82392857D01*
X167333333Y-82535714D01*
X167285714Y-82630952D01*
X167238095Y-82678571D01*
X167142857Y-82726190D01*
X166761904Y-82726190D01*
X168238095Y-82202380D02*
X167761904Y-82202380D01*
X167714285Y-82678571D01*
X167761904Y-82630952D01*
X167857142Y-82583333D01*
X168095238Y-82583333D01*
X168190476Y-82630952D01*
X168238095Y-82678571D01*
X168285714Y-82773809D01*
X168285714Y-83011904D01*
X168238095Y-83107142D01*
X168190476Y-83154761D01*
X168095238Y-83202380D01*
X167857142Y-83202380D01*
X167761904Y-83154761D01*
X167714285Y-83107142D01*
G04 #@! TO.C,R6*
X141668733Y-80697980D02*
X141335400Y-80221790D01*
X141097304Y-80697980D02*
X141097304Y-79697980D01*
X141478257Y-79697980D01*
X141573495Y-79745600D01*
X141621114Y-79793219D01*
X141668733Y-79888457D01*
X141668733Y-80031314D01*
X141621114Y-80126552D01*
X141573495Y-80174171D01*
X141478257Y-80221790D01*
X141097304Y-80221790D01*
X142525876Y-79697980D02*
X142335400Y-79697980D01*
X142240161Y-79745600D01*
X142192542Y-79793219D01*
X142097304Y-79936076D01*
X142049685Y-80126552D01*
X142049685Y-80507504D01*
X142097304Y-80602742D01*
X142144923Y-80650361D01*
X142240161Y-80697980D01*
X142430638Y-80697980D01*
X142525876Y-80650361D01*
X142573495Y-80602742D01*
X142621114Y-80507504D01*
X142621114Y-80269409D01*
X142573495Y-80174171D01*
X142525876Y-80126552D01*
X142430638Y-80078933D01*
X142240161Y-80078933D01*
X142144923Y-80126552D01*
X142097304Y-80174171D01*
X142049685Y-80269409D01*
G04 #@! TO.C,Sw1*
X174964285Y-90654761D02*
X175107142Y-90702380D01*
X175345238Y-90702380D01*
X175440476Y-90654761D01*
X175488095Y-90607142D01*
X175535714Y-90511904D01*
X175535714Y-90416666D01*
X175488095Y-90321428D01*
X175440476Y-90273809D01*
X175345238Y-90226190D01*
X175154761Y-90178571D01*
X175059523Y-90130952D01*
X175011904Y-90083333D01*
X174964285Y-89988095D01*
X174964285Y-89892857D01*
X175011904Y-89797619D01*
X175059523Y-89750000D01*
X175154761Y-89702380D01*
X175392857Y-89702380D01*
X175535714Y-89750000D01*
X175869047Y-90035714D02*
X176059523Y-90702380D01*
X176250000Y-90226190D01*
X176440476Y-90702380D01*
X176630952Y-90035714D01*
X177535714Y-90702380D02*
X176964285Y-90702380D01*
X177250000Y-90702380D02*
X177250000Y-89702380D01*
X177154761Y-89845238D01*
X177059523Y-89940476D01*
X176964285Y-89988095D01*
G04 #@! TO.C,U1*
X160488095Y-79452380D02*
X160488095Y-80261904D01*
X160535714Y-80357142D01*
X160583333Y-80404761D01*
X160678571Y-80452380D01*
X160869047Y-80452380D01*
X160964285Y-80404761D01*
X161011904Y-80357142D01*
X161059523Y-80261904D01*
X161059523Y-79452380D01*
X162059523Y-80452380D02*
X161488095Y-80452380D01*
X161773809Y-80452380D02*
X161773809Y-79452380D01*
X161678571Y-79595238D01*
X161583333Y-79690476D01*
X161488095Y-79738095D01*
G04 #@! TO.C,U3*
X157238095Y-80452380D02*
X157238095Y-81261904D01*
X157285714Y-81357142D01*
X157333333Y-81404761D01*
X157428571Y-81452380D01*
X157619047Y-81452380D01*
X157714285Y-81404761D01*
X157761904Y-81357142D01*
X157809523Y-81261904D01*
X157809523Y-80452380D01*
X158190476Y-80452380D02*
X158809523Y-80452380D01*
X158476190Y-80833333D01*
X158619047Y-80833333D01*
X158714285Y-80880952D01*
X158761904Y-80928571D01*
X158809523Y-81023809D01*
X158809523Y-81261904D01*
X158761904Y-81357142D01*
X158714285Y-81404761D01*
X158619047Y-81452380D01*
X158333333Y-81452380D01*
X158238095Y-81404761D01*
X158190476Y-81357142D01*
G04 #@! TO.C,P1*
X146261904Y-80702380D02*
X146261904Y-79702380D01*
X146642857Y-79702380D01*
X146738095Y-79750000D01*
X146785714Y-79797619D01*
X146833333Y-79892857D01*
X146833333Y-80035714D01*
X146785714Y-80130952D01*
X146738095Y-80178571D01*
X146642857Y-80226190D01*
X146261904Y-80226190D01*
X147785714Y-80702380D02*
X147214285Y-80702380D01*
X147500000Y-80702380D02*
X147500000Y-79702380D01*
X147404761Y-79845238D01*
X147309523Y-79940476D01*
X147214285Y-79988095D01*
G04 #@! TO.C,P2*
X148761904Y-80702380D02*
X148761904Y-79702380D01*
X149142857Y-79702380D01*
X149238095Y-79750000D01*
X149285714Y-79797619D01*
X149333333Y-79892857D01*
X149333333Y-80035714D01*
X149285714Y-80130952D01*
X149238095Y-80178571D01*
X149142857Y-80226190D01*
X148761904Y-80226190D01*
X149714285Y-79797619D02*
X149761904Y-79750000D01*
X149857142Y-79702380D01*
X150095238Y-79702380D01*
X150190476Y-79750000D01*
X150238095Y-79797619D01*
X150285714Y-79892857D01*
X150285714Y-79988095D01*
X150238095Y-80130952D01*
X149666666Y-80702380D01*
X150285714Y-80702380D01*
G04 #@! TO.C,C4*
X164583333Y-81607142D02*
X164535714Y-81654761D01*
X164392857Y-81702380D01*
X164297619Y-81702380D01*
X164154761Y-81654761D01*
X164059523Y-81559523D01*
X164011904Y-81464285D01*
X163964285Y-81273809D01*
X163964285Y-81130952D01*
X164011904Y-80940476D01*
X164059523Y-80845238D01*
X164154761Y-80750000D01*
X164297619Y-80702380D01*
X164392857Y-80702380D01*
X164535714Y-80750000D01*
X164583333Y-80797619D01*
X165440476Y-81035714D02*
X165440476Y-81702380D01*
X165202380Y-80654761D02*
X164964285Y-81369047D01*
X165583333Y-81369047D01*
G04 #@! TO.C,C1*
X167083333Y-81607142D02*
X167035714Y-81654761D01*
X166892857Y-81702380D01*
X166797619Y-81702380D01*
X166654761Y-81654761D01*
X166559523Y-81559523D01*
X166511904Y-81464285D01*
X166464285Y-81273809D01*
X166464285Y-81130952D01*
X166511904Y-80940476D01*
X166559523Y-80845238D01*
X166654761Y-80750000D01*
X166797619Y-80702380D01*
X166892857Y-80702380D01*
X167035714Y-80750000D01*
X167083333Y-80797619D01*
X168035714Y-81702380D02*
X167464285Y-81702380D01*
X167750000Y-81702380D02*
X167750000Y-80702380D01*
X167654761Y-80845238D01*
X167559523Y-80940476D01*
X167464285Y-80988095D01*
G04 #@! TO.C,C2*
X154333333Y-81857142D02*
X154285714Y-81904761D01*
X154142857Y-81952380D01*
X154047619Y-81952380D01*
X153904761Y-81904761D01*
X153809523Y-81809523D01*
X153761904Y-81714285D01*
X153714285Y-81523809D01*
X153714285Y-81380952D01*
X153761904Y-81190476D01*
X153809523Y-81095238D01*
X153904761Y-81000000D01*
X154047619Y-80952380D01*
X154142857Y-80952380D01*
X154285714Y-81000000D01*
X154333333Y-81047619D01*
X154714285Y-81047619D02*
X154761904Y-81000000D01*
X154857142Y-80952380D01*
X155095238Y-80952380D01*
X155190476Y-81000000D01*
X155238095Y-81047619D01*
X155285714Y-81142857D01*
X155285714Y-81238095D01*
X155238095Y-81380952D01*
X154666666Y-81952380D01*
X155285714Y-81952380D01*
G04 #@! TO.C,C3*
X154833333Y-94357142D02*
X154785714Y-94404761D01*
X154642857Y-94452380D01*
X154547619Y-94452380D01*
X154404761Y-94404761D01*
X154309523Y-94309523D01*
X154261904Y-94214285D01*
X154214285Y-94023809D01*
X154214285Y-93880952D01*
X154261904Y-93690476D01*
X154309523Y-93595238D01*
X154404761Y-93500000D01*
X154547619Y-93452380D01*
X154642857Y-93452380D01*
X154785714Y-93500000D01*
X154833333Y-93547619D01*
X155166666Y-93452380D02*
X155785714Y-93452380D01*
X155452380Y-93833333D01*
X155595238Y-93833333D01*
X155690476Y-93880952D01*
X155738095Y-93928571D01*
X155785714Y-94023809D01*
X155785714Y-94261904D01*
X155738095Y-94357142D01*
X155690476Y-94404761D01*
X155595238Y-94452380D01*
X155309523Y-94452380D01*
X155214285Y-94404761D01*
X155166666Y-94357142D01*
G04 #@! TD*
M02*
