G04 #@! TF.GenerationSoftware,KiCad,Pcbnew,(5.0.2)-1*
G04 #@! TF.CreationDate,2019-01-05T19:06:30+01:00*
G04 #@! TF.ProjectId,DrumMetter,4472756d-4d65-4747-9465-722e6b696361,01*
G04 #@! TF.SameCoordinates,Original*
G04 #@! TF.FileFunction,Soldermask,Top*
G04 #@! TF.FilePolarity,Negative*
%FSLAX46Y46*%
G04 Gerber Fmt 4.6, Leading zero omitted, Abs format (unit mm)*
G04 Created by KiCad (PCBNEW (5.0.2)-1) date 05.01.2019 19:06:30*
%MOMM*%
%LPD*%
G01*
G04 APERTURE LIST*
%ADD10C,0.300000*%
%ADD11C,0.100000*%
G04 APERTURE END LIST*
D10*
X146109142Y-93710857D02*
X146509142Y-94910857D01*
X146909142Y-93710857D01*
X147537714Y-93710857D02*
X147652000Y-93710857D01*
X147766285Y-93768000D01*
X147823428Y-93825142D01*
X147880571Y-93939428D01*
X147937714Y-94168000D01*
X147937714Y-94453714D01*
X147880571Y-94682285D01*
X147823428Y-94796571D01*
X147766285Y-94853714D01*
X147652000Y-94910857D01*
X147537714Y-94910857D01*
X147423428Y-94853714D01*
X147366285Y-94796571D01*
X147309142Y-94682285D01*
X147252000Y-94453714D01*
X147252000Y-94168000D01*
X147309142Y-93939428D01*
X147366285Y-93825142D01*
X147423428Y-93768000D01*
X147537714Y-93710857D01*
X149080571Y-94910857D02*
X148394857Y-94910857D01*
X148737714Y-94910857D02*
X148737714Y-93710857D01*
X148623428Y-93882285D01*
X148509142Y-93996571D01*
X148394857Y-94053714D01*
D11*
G36*
X171721000Y-91264000D02*
X171723402Y-91288386D01*
X171730515Y-91311835D01*
X171742066Y-91333446D01*
X171757612Y-91352388D01*
X171776554Y-91367934D01*
X171798165Y-91379485D01*
X171821614Y-91386598D01*
X171846000Y-91389000D01*
X173371000Y-91389000D01*
X173371000Y-93791000D01*
X171846000Y-93791000D01*
X171821614Y-93793402D01*
X171798165Y-93800515D01*
X171776554Y-93812066D01*
X171757612Y-93827612D01*
X171742066Y-93846554D01*
X171730515Y-93868165D01*
X171723402Y-93891614D01*
X171721000Y-93916000D01*
X171721000Y-94941000D01*
X170319000Y-94941000D01*
X170319000Y-93916000D01*
X170316598Y-93891614D01*
X170309485Y-93868165D01*
X170297934Y-93846554D01*
X170282388Y-93827612D01*
X170263446Y-93812066D01*
X170241835Y-93800515D01*
X170218386Y-93793402D01*
X170194000Y-93791000D01*
X168669000Y-93791000D01*
X168669000Y-91866000D01*
X170171000Y-91866000D01*
X170171000Y-93314000D01*
X170173402Y-93338386D01*
X170180515Y-93361835D01*
X170192066Y-93383446D01*
X170207612Y-93402388D01*
X170226554Y-93417934D01*
X170248165Y-93429485D01*
X170271614Y-93436598D01*
X170296000Y-93439000D01*
X171744000Y-93439000D01*
X171768386Y-93436598D01*
X171791835Y-93429485D01*
X171813446Y-93417934D01*
X171832388Y-93402388D01*
X171847934Y-93383446D01*
X171859485Y-93361835D01*
X171866598Y-93338386D01*
X171869000Y-93314000D01*
X171869000Y-91866000D01*
X171866598Y-91841614D01*
X171859485Y-91818165D01*
X171847934Y-91796554D01*
X171832388Y-91777612D01*
X171813446Y-91762066D01*
X171791835Y-91750515D01*
X171768386Y-91743402D01*
X171744000Y-91741000D01*
X170296000Y-91741000D01*
X170271614Y-91743402D01*
X170248165Y-91750515D01*
X170226554Y-91762066D01*
X170207612Y-91777612D01*
X170192066Y-91796554D01*
X170180515Y-91818165D01*
X170173402Y-91841614D01*
X170171000Y-91866000D01*
X168669000Y-91866000D01*
X168669000Y-91389000D01*
X170194000Y-91389000D01*
X170218386Y-91386598D01*
X170241835Y-91379485D01*
X170263446Y-91367934D01*
X170282388Y-91352388D01*
X170297934Y-91333446D01*
X170309485Y-91311835D01*
X170316598Y-91288386D01*
X170319000Y-91264000D01*
X170319000Y-90239000D01*
X171721000Y-90239000D01*
X171721000Y-91264000D01*
X171721000Y-91264000D01*
G37*
G36*
X162387000Y-94203000D02*
X160285000Y-94203000D01*
X160285000Y-92501000D01*
X162387000Y-92501000D01*
X162387000Y-94203000D01*
X162387000Y-94203000D01*
G37*
G36*
X158387000Y-94203000D02*
X156285000Y-94203000D01*
X156285000Y-92501000D01*
X158387000Y-92501000D01*
X158387000Y-94203000D01*
X158387000Y-94203000D01*
G37*
G36*
X181471981Y-91627468D02*
X181654150Y-91702925D01*
X181818103Y-91812475D01*
X181957525Y-91951897D01*
X182067075Y-92115850D01*
X182142532Y-92298019D01*
X182181000Y-92491410D01*
X182181000Y-92688590D01*
X182142532Y-92881981D01*
X182067075Y-93064150D01*
X181957525Y-93228103D01*
X181818103Y-93367525D01*
X181654150Y-93477075D01*
X181471981Y-93552532D01*
X181278590Y-93591000D01*
X181081410Y-93591000D01*
X180888019Y-93552532D01*
X180705850Y-93477075D01*
X180541897Y-93367525D01*
X180402475Y-93228103D01*
X180292925Y-93064150D01*
X180217468Y-92881981D01*
X180179000Y-92688590D01*
X180179000Y-92491410D01*
X180217468Y-92298019D01*
X180292925Y-92115850D01*
X180402475Y-91951897D01*
X180541897Y-91812475D01*
X180705850Y-91702925D01*
X180888019Y-91627468D01*
X181081410Y-91589000D01*
X181278590Y-91589000D01*
X181471981Y-91627468D01*
X181471981Y-91627468D01*
G37*
G36*
X181471981Y-89087468D02*
X181654150Y-89162925D01*
X181818103Y-89272475D01*
X181957525Y-89411897D01*
X182067075Y-89575850D01*
X182142532Y-89758019D01*
X182181000Y-89951410D01*
X182181000Y-90148590D01*
X182142532Y-90341981D01*
X182067075Y-90524150D01*
X181957525Y-90688103D01*
X181818103Y-90827525D01*
X181654150Y-90937075D01*
X181471981Y-91012532D01*
X181278590Y-91051000D01*
X181081410Y-91051000D01*
X180888019Y-91012532D01*
X180705850Y-90937075D01*
X180541897Y-90827525D01*
X180402475Y-90688103D01*
X180292925Y-90524150D01*
X180217468Y-90341981D01*
X180179000Y-90148590D01*
X180179000Y-89951410D01*
X180217468Y-89758019D01*
X180292925Y-89575850D01*
X180402475Y-89411897D01*
X180541897Y-89272475D01*
X180705850Y-89162925D01*
X180888019Y-89087468D01*
X181081410Y-89049000D01*
X181278590Y-89049000D01*
X181471981Y-89087468D01*
X181471981Y-89087468D01*
G37*
G36*
X152991000Y-90863000D02*
X149489000Y-90863000D01*
X149489000Y-89237000D01*
X152991000Y-89237000D01*
X152991000Y-90863000D01*
X152991000Y-90863000D01*
G37*
G36*
X144291000Y-90863000D02*
X140789000Y-90863000D01*
X140789000Y-89237000D01*
X144291000Y-89237000D01*
X144291000Y-90863000D01*
X144291000Y-90863000D01*
G37*
G36*
X157310000Y-90401000D02*
X155408000Y-90401000D01*
X155408000Y-89699000D01*
X157310000Y-89699000D01*
X157310000Y-90401000D01*
X157310000Y-90401000D01*
G37*
G36*
X163010000Y-90401000D02*
X161108000Y-90401000D01*
X161108000Y-89699000D01*
X163010000Y-89699000D01*
X163010000Y-90401000D01*
X163010000Y-90401000D01*
G37*
G36*
X163010000Y-89131000D02*
X161108000Y-89131000D01*
X161108000Y-88429000D01*
X163010000Y-88429000D01*
X163010000Y-89131000D01*
X163010000Y-89131000D01*
G37*
G36*
X157310000Y-89131000D02*
X155408000Y-89131000D01*
X155408000Y-88429000D01*
X157310000Y-88429000D01*
X157310000Y-89131000D01*
X157310000Y-89131000D01*
G37*
G36*
X181471981Y-86547468D02*
X181654150Y-86622925D01*
X181818103Y-86732475D01*
X181957525Y-86871897D01*
X182067075Y-87035850D01*
X182142532Y-87218019D01*
X182181000Y-87411410D01*
X182181000Y-87608590D01*
X182142532Y-87801981D01*
X182067075Y-87984150D01*
X181957525Y-88148103D01*
X181818103Y-88287525D01*
X181654150Y-88397075D01*
X181471981Y-88472532D01*
X181278590Y-88511000D01*
X181081410Y-88511000D01*
X180888019Y-88472532D01*
X180705850Y-88397075D01*
X180541897Y-88287525D01*
X180402475Y-88148103D01*
X180292925Y-87984150D01*
X180217468Y-87801981D01*
X180179000Y-87608590D01*
X180179000Y-87411410D01*
X180217468Y-87218019D01*
X180292925Y-87035850D01*
X180402475Y-86871897D01*
X180541897Y-86732475D01*
X180705850Y-86622925D01*
X180888019Y-86547468D01*
X181081410Y-86509000D01*
X181278590Y-86509000D01*
X181471981Y-86547468D01*
X181471981Y-86547468D01*
G37*
G36*
X144291000Y-88323000D02*
X140789000Y-88323000D01*
X140789000Y-86697000D01*
X144291000Y-86697000D01*
X144291000Y-88323000D01*
X144291000Y-88323000D01*
G37*
G36*
X152991000Y-88323000D02*
X149489000Y-88323000D01*
X149489000Y-86697000D01*
X152991000Y-86697000D01*
X152991000Y-88323000D01*
X152991000Y-88323000D01*
G37*
G36*
X170197000Y-87883000D02*
X168795000Y-87883000D01*
X168795000Y-86281000D01*
X170197000Y-86281000D01*
X170197000Y-87883000D01*
X170197000Y-87883000D01*
G37*
G36*
X168165000Y-87883000D02*
X166763000Y-87883000D01*
X166763000Y-86281000D01*
X168165000Y-86281000D01*
X168165000Y-87883000D01*
X168165000Y-87883000D01*
G37*
G36*
X163010000Y-87861000D02*
X161108000Y-87861000D01*
X161108000Y-87159000D01*
X163010000Y-87159000D01*
X163010000Y-87861000D01*
X163010000Y-87861000D01*
G37*
G36*
X157310000Y-87861000D02*
X155408000Y-87861000D01*
X155408000Y-87159000D01*
X157310000Y-87159000D01*
X157310000Y-87861000D01*
X157310000Y-87861000D01*
G37*
G36*
X163010000Y-86591000D02*
X161108000Y-86591000D01*
X161108000Y-85889000D01*
X163010000Y-85889000D01*
X163010000Y-86591000D01*
X163010000Y-86591000D01*
G37*
G36*
X157310000Y-86591000D02*
X155408000Y-86591000D01*
X155408000Y-85889000D01*
X157310000Y-85889000D01*
X157310000Y-86591000D01*
X157310000Y-86591000D01*
G37*
G36*
X176377396Y-84715546D02*
X176550466Y-84787234D01*
X176706230Y-84891312D01*
X176838688Y-85023770D01*
X176942766Y-85179534D01*
X177014454Y-85352604D01*
X177051000Y-85536333D01*
X177051000Y-85723667D01*
X177014454Y-85907396D01*
X176942766Y-86080466D01*
X176838688Y-86236230D01*
X176706230Y-86368688D01*
X176550466Y-86472766D01*
X176377396Y-86544454D01*
X176193667Y-86581000D01*
X176006333Y-86581000D01*
X175822604Y-86544454D01*
X175649534Y-86472766D01*
X175493770Y-86368688D01*
X175361312Y-86236230D01*
X175257234Y-86080466D01*
X175185546Y-85907396D01*
X175149000Y-85723667D01*
X175149000Y-85536333D01*
X175185546Y-85352604D01*
X175257234Y-85179534D01*
X175361312Y-85023770D01*
X175493770Y-84891312D01*
X175649534Y-84787234D01*
X175822604Y-84715546D01*
X176006333Y-84679000D01*
X176193667Y-84679000D01*
X176377396Y-84715546D01*
X176377396Y-84715546D01*
G37*
G36*
X181471981Y-84007468D02*
X181654150Y-84082925D01*
X181818103Y-84192475D01*
X181957525Y-84331897D01*
X182067075Y-84495850D01*
X182142532Y-84678019D01*
X182181000Y-84871410D01*
X182181000Y-85068590D01*
X182142532Y-85261981D01*
X182067075Y-85444150D01*
X181957525Y-85608103D01*
X181818103Y-85747525D01*
X181654150Y-85857075D01*
X181471981Y-85932532D01*
X181278590Y-85971000D01*
X181081410Y-85971000D01*
X180888019Y-85932532D01*
X180705850Y-85857075D01*
X180541897Y-85747525D01*
X180402475Y-85608103D01*
X180292925Y-85444150D01*
X180217468Y-85261981D01*
X180179000Y-85068590D01*
X180179000Y-84871410D01*
X180217468Y-84678019D01*
X180292925Y-84495850D01*
X180402475Y-84331897D01*
X180541897Y-84192475D01*
X180705850Y-84082925D01*
X180888019Y-84007468D01*
X181081410Y-83969000D01*
X181278590Y-83969000D01*
X181471981Y-84007468D01*
X181471981Y-84007468D01*
G37*
G36*
X144291000Y-85783000D02*
X140789000Y-85783000D01*
X140789000Y-84157000D01*
X144291000Y-84157000D01*
X144291000Y-85783000D01*
X144291000Y-85783000D01*
G37*
G36*
X152991000Y-85783000D02*
X149489000Y-85783000D01*
X149489000Y-84157000D01*
X152991000Y-84157000D01*
X152991000Y-85783000D01*
X152991000Y-85783000D01*
G37*
G36*
X163010000Y-85321000D02*
X161108000Y-85321000D01*
X161108000Y-84619000D01*
X163010000Y-84619000D01*
X163010000Y-85321000D01*
X163010000Y-85321000D01*
G37*
G36*
X157310000Y-85321000D02*
X155408000Y-85321000D01*
X155408000Y-84619000D01*
X157310000Y-84619000D01*
X157310000Y-85321000D01*
X157310000Y-85321000D01*
G37*
G36*
X170197000Y-85183000D02*
X168795000Y-85183000D01*
X168795000Y-83581000D01*
X170197000Y-83581000D01*
X170197000Y-85183000D01*
X170197000Y-85183000D01*
G37*
G36*
X168165000Y-85183000D02*
X166763000Y-85183000D01*
X166763000Y-83581000D01*
X168165000Y-83581000D01*
X168165000Y-85183000D01*
X168165000Y-85183000D01*
G37*
G36*
X157310000Y-84051000D02*
X155408000Y-84051000D01*
X155408000Y-83349000D01*
X157310000Y-83349000D01*
X157310000Y-84051000D01*
X157310000Y-84051000D01*
G37*
G36*
X163010000Y-84051000D02*
X161108000Y-84051000D01*
X161108000Y-83349000D01*
X163010000Y-83349000D01*
X163010000Y-84051000D01*
X163010000Y-84051000D01*
G37*
G36*
X181471981Y-81467468D02*
X181654150Y-81542925D01*
X181818103Y-81652475D01*
X181957525Y-81791897D01*
X182067075Y-81955850D01*
X182142532Y-82138019D01*
X182181000Y-82331410D01*
X182181000Y-82528590D01*
X182142532Y-82721981D01*
X182067075Y-82904150D01*
X181957525Y-83068103D01*
X181818103Y-83207525D01*
X181654150Y-83317075D01*
X181471981Y-83392532D01*
X181278590Y-83431000D01*
X181081410Y-83431000D01*
X180888019Y-83392532D01*
X180705850Y-83317075D01*
X180541897Y-83207525D01*
X180402475Y-83068103D01*
X180292925Y-82904150D01*
X180217468Y-82721981D01*
X180179000Y-82528590D01*
X180179000Y-82331410D01*
X180217468Y-82138019D01*
X180292925Y-81955850D01*
X180402475Y-81791897D01*
X180541897Y-81652475D01*
X180705850Y-81542925D01*
X180888019Y-81467468D01*
X181081410Y-81429000D01*
X181278590Y-81429000D01*
X181471981Y-81467468D01*
X181471981Y-81467468D01*
G37*
G36*
X176377396Y-81515546D02*
X176550466Y-81587234D01*
X176706230Y-81691312D01*
X176838688Y-81823770D01*
X176942766Y-81979534D01*
X177014454Y-82152604D01*
X177051000Y-82336333D01*
X177051000Y-82523667D01*
X177014454Y-82707396D01*
X176942766Y-82880466D01*
X176838688Y-83036230D01*
X176706230Y-83168688D01*
X176550466Y-83272766D01*
X176377396Y-83344454D01*
X176193667Y-83381000D01*
X176006333Y-83381000D01*
X175822604Y-83344454D01*
X175649534Y-83272766D01*
X175493770Y-83168688D01*
X175361312Y-83036230D01*
X175257234Y-82880466D01*
X175185546Y-82707396D01*
X175149000Y-82523667D01*
X175149000Y-82336333D01*
X175185546Y-82152604D01*
X175257234Y-81979534D01*
X175361312Y-81823770D01*
X175493770Y-81691312D01*
X175649534Y-81587234D01*
X175822604Y-81515546D01*
X176006333Y-81479000D01*
X176193667Y-81479000D01*
X176377396Y-81515546D01*
X176377396Y-81515546D01*
G37*
G36*
X144291000Y-83243000D02*
X140789000Y-83243000D01*
X140789000Y-81617000D01*
X144291000Y-81617000D01*
X144291000Y-83243000D01*
X144291000Y-83243000D01*
G37*
G36*
X152991000Y-83243000D02*
X149489000Y-83243000D01*
X149489000Y-81617000D01*
X152991000Y-81617000D01*
X152991000Y-83243000D01*
X152991000Y-83243000D01*
G37*
G36*
X157310000Y-82781000D02*
X155408000Y-82781000D01*
X155408000Y-82079000D01*
X157310000Y-82079000D01*
X157310000Y-82781000D01*
X157310000Y-82781000D01*
G37*
G36*
X163010000Y-82781000D02*
X161108000Y-82781000D01*
X161108000Y-82079000D01*
X163010000Y-82079000D01*
X163010000Y-82781000D01*
X163010000Y-82781000D01*
G37*
G36*
X182181000Y-80891000D02*
X180179000Y-80891000D01*
X180179000Y-78889000D01*
X182181000Y-78889000D01*
X182181000Y-80891000D01*
X182181000Y-80891000D01*
G37*
G36*
X168061000Y-80401000D02*
X166359000Y-80401000D01*
X166359000Y-78299000D01*
X168061000Y-78299000D01*
X168061000Y-80401000D01*
X168061000Y-80401000D01*
G37*
G36*
X165521000Y-80401000D02*
X163819000Y-80401000D01*
X163819000Y-78299000D01*
X165521000Y-78299000D01*
X165521000Y-80401000D01*
X165521000Y-80401000D01*
G37*
G36*
X155361000Y-80401000D02*
X153659000Y-80401000D01*
X153659000Y-78299000D01*
X155361000Y-78299000D01*
X155361000Y-80401000D01*
X155361000Y-80401000D01*
G37*
G36*
X176377396Y-78315546D02*
X176550466Y-78387234D01*
X176706230Y-78491312D01*
X176838688Y-78623770D01*
X176942766Y-78779534D01*
X177014454Y-78952604D01*
X177051000Y-79136333D01*
X177051000Y-79323667D01*
X177014454Y-79507396D01*
X176942766Y-79680466D01*
X176838688Y-79836230D01*
X176706230Y-79968688D01*
X176550466Y-80072766D01*
X176377396Y-80144454D01*
X176193667Y-80181000D01*
X176006333Y-80181000D01*
X175822604Y-80144454D01*
X175649534Y-80072766D01*
X175493770Y-79968688D01*
X175361312Y-79836230D01*
X175257234Y-79680466D01*
X175185546Y-79507396D01*
X175149000Y-79323667D01*
X175149000Y-79136333D01*
X175185546Y-78952604D01*
X175257234Y-78779534D01*
X175361312Y-78623770D01*
X175493770Y-78491312D01*
X175649534Y-78387234D01*
X175822604Y-78315546D01*
X176006333Y-78279000D01*
X176193667Y-78279000D01*
X176377396Y-78315546D01*
X176377396Y-78315546D01*
G37*
G36*
X170451000Y-79501000D02*
X169049000Y-79501000D01*
X169049000Y-77899000D01*
X170451000Y-77899000D01*
X170451000Y-79501000D01*
X170451000Y-79501000D01*
G37*
G36*
X142511000Y-79501000D02*
X141109000Y-79501000D01*
X141109000Y-77899000D01*
X142511000Y-77899000D01*
X142511000Y-79501000D01*
X142511000Y-79501000D01*
G37*
G36*
X145051000Y-79501000D02*
X143649000Y-79501000D01*
X143649000Y-77899000D01*
X145051000Y-77899000D01*
X145051000Y-79501000D01*
X145051000Y-79501000D01*
G37*
G36*
X152671000Y-79501000D02*
X151269000Y-79501000D01*
X151269000Y-77899000D01*
X152671000Y-77899000D01*
X152671000Y-79501000D01*
X152671000Y-79501000D01*
G37*
G36*
X149981000Y-79226000D02*
X148879000Y-79226000D01*
X148879000Y-77724000D01*
X149981000Y-77724000D01*
X149981000Y-79226000D01*
X149981000Y-79226000D01*
G37*
G36*
X147441000Y-79226000D02*
X146339000Y-79226000D01*
X146339000Y-77724000D01*
X147441000Y-77724000D01*
X147441000Y-79226000D01*
X147441000Y-79226000D01*
G37*
G36*
X161390000Y-78676000D02*
X159728000Y-78676000D01*
X159728000Y-76024000D01*
X161390000Y-76024000D01*
X161390000Y-78676000D01*
X161390000Y-78676000D01*
G37*
G36*
X158690000Y-78676000D02*
X157028000Y-78676000D01*
X157028000Y-77924000D01*
X158690000Y-77924000D01*
X158690000Y-78676000D01*
X158690000Y-78676000D01*
G37*
G36*
X147441000Y-76976000D02*
X146339000Y-76976000D01*
X146339000Y-75474000D01*
X147441000Y-75474000D01*
X147441000Y-76976000D01*
X147441000Y-76976000D01*
G37*
G36*
X149981000Y-76976000D02*
X148879000Y-76976000D01*
X148879000Y-75474000D01*
X149981000Y-75474000D01*
X149981000Y-76976000D01*
X149981000Y-76976000D01*
G37*
G36*
X142511000Y-76801000D02*
X141109000Y-76801000D01*
X141109000Y-75199000D01*
X142511000Y-75199000D01*
X142511000Y-76801000D01*
X142511000Y-76801000D01*
G37*
G36*
X170451000Y-76801000D02*
X169049000Y-76801000D01*
X169049000Y-75199000D01*
X170451000Y-75199000D01*
X170451000Y-76801000D01*
X170451000Y-76801000D01*
G37*
G36*
X145051000Y-76801000D02*
X143649000Y-76801000D01*
X143649000Y-75199000D01*
X145051000Y-75199000D01*
X145051000Y-76801000D01*
X145051000Y-76801000D01*
G37*
G36*
X152671000Y-76801000D02*
X151269000Y-76801000D01*
X151269000Y-75199000D01*
X152671000Y-75199000D01*
X152671000Y-76801000D01*
X152671000Y-76801000D01*
G37*
G36*
X158690000Y-76776000D02*
X157028000Y-76776000D01*
X157028000Y-76024000D01*
X158690000Y-76024000D01*
X158690000Y-76776000D01*
X158690000Y-76776000D01*
G37*
G36*
X155361000Y-76401000D02*
X153659000Y-76401000D01*
X153659000Y-74299000D01*
X155361000Y-74299000D01*
X155361000Y-76401000D01*
X155361000Y-76401000D01*
G37*
G36*
X165521000Y-76401000D02*
X163819000Y-76401000D01*
X163819000Y-74299000D01*
X165521000Y-74299000D01*
X165521000Y-76401000D01*
X165521000Y-76401000D01*
G37*
G36*
X168061000Y-76401000D02*
X166359000Y-76401000D01*
X166359000Y-74299000D01*
X168061000Y-74299000D01*
X168061000Y-76401000D01*
X168061000Y-76401000D01*
G37*
M02*
